<?xml version="1.0" encoding="UTF-8" standalone="no"?>
<!-- Created with Inkscape (http://www.inkscape.org/) -->

<svg
   version="1.1"
   id="svg2"
   xml:space="preserve"
   width="1122.5197"
   height="793.70081"
   viewBox="0 0 1122.5197 793.70081"
   sodipodi:docname="charuco_297x210_6x9_30_22_DICT_6X6.svg"
   inkscape:version="1.1.2 (0a00cf5339, 2022-02-04)"
   xmlns:inkscape="http://www.inkscape.org/namespaces/inkscape"
   xmlns:sodipodi="http://sodipodi.sourceforge.net/DTD/sodipodi-0.dtd"
   xmlns="http://www.w3.org/2000/svg"
   xmlns:svg="http://www.w3.org/2000/svg"><defs
     id="defs6"><clipPath
       clipPathUnits="userSpaceOnUse"
       id="clipPath20"><path
         d="M 0,0 H 297 V 210 H 0 Z"
         id="path18" /></clipPath></defs><sodipodi:namedview
     id="namedview4"
     pagecolor="#ffffff"
     bordercolor="#666666"
     borderopacity="1.0"
     inkscape:pageshadow="2"
     inkscape:pageopacity="0.0"
     inkscape:pagecheckerboard="0"
     showgrid="false"
     inkscape:zoom="1.0999107"
     inkscape:cx="561.40922"
     inkscape:cy="396.8504"
     inkscape:window-width="2560"
     inkscape:window-height="1376"
     inkscape:window-x="0"
     inkscape:window-y="27"
     inkscape:window-maximized="1"
     inkscape:current-layer="g8" /><g
     id="g8"
     inkscape:groupmode="layer"
     inkscape:label="calib.io_charuco_297x210_6x9_30_22_DICT_6X6"
     transform="matrix(1.3333333,0,0,-1.3333333,0,793.70079)"><g
       id="g24"
       transform="matrix(2.8346457,0,0,-2.8346457,0,595.27559)"><g
         id="g26"><g
           id="g28"><path
             d="m 17.5,19 h 22 v 22 h -22 z"
             style="fill:#000000;fill-opacity:1;fill-rule:nonzero;stroke:none"
             id="path30" /></g></g><g
         id="g32"><g
           id="g34"><path
             d="m 28.5,21.75 h 2.75 V 24.5 H 28.5 Z m 2.75,0 H 34 v 2.75 h -2.75 z m 2.75,0 h 2.75 V 24.5 H 34 Z M 20.25,24.5 H 23 v 2.75 h -2.75 z m 11,0 H 34 v 2.75 h -2.75 z m 2.75,0 h 2.75 v 2.75 H 34 Z M 20.25,27.25 H 23 V 30 h -2.75 z m 2.75,0 h 2.75 V 30 H 23 Z m 5.5,0 h 2.75 V 30 H 28.5 Z m 2.75,0 H 34 V 30 h -2.75 z m 2.75,0 h 2.75 V 30 H 34 Z M 23,30 h 2.75 v 2.75 H 23 Z m 2.75,0 h 2.75 v 2.75 h -2.75 z m 0,2.75 h 2.75 v 2.75 h -2.75 z m 5.5,0 H 34 v 2.75 h -2.75 z m -11,2.75 H 23 v 2.75 h -2.75 z m 8.25,0 h 2.75 v 2.75 H 28.5 Z m 2.75,0 H 34 v 2.75 h -2.75 z"
             style="fill:#ffffff;fill-opacity:1;fill-rule:nonzero;stroke:none"
             id="path36" /></g></g></g><g
       id="g38"
       transform="matrix(2.8346457,0,0,-2.8346457,0,595.27559)"><g
         id="g40"><path
           d="m 43.5,15 h 30 v 30 h -30 z"
           style="fill:#000000;fill-opacity:1;fill-rule:nonzero;stroke:none"
           id="path42" /></g></g><g
       id="g44"
       transform="matrix(2.8346457,0,0,-2.8346457,0,595.27559)"><g
         id="g46"><g
           id="g48"><path
             d="m 77.5,19 h 22 v 22 h -22 z"
             style="fill:#000000;fill-opacity:1;fill-rule:nonzero;stroke:none"
             id="path50" /></g></g><g
         id="g52"><g
           id="g54"><path
             d="M 91.25,21.75 H 94 v 2.75 h -2.75 z m 2.75,0 h 2.75 V 24.5 H 94 Z M 80.25,24.5 H 83 v 2.75 h -2.75 z m 5.5,0 h 2.75 v 2.75 h -2.75 z m 2.75,0 h 2.75 v 2.75 H 88.5 Z m 2.75,0 H 94 v 2.75 h -2.75 z m 2.75,0 h 2.75 v 2.75 H 94 Z M 80.25,27.25 H 83 V 30 h -2.75 z m 5.5,0 H 88.5 V 30 h -2.75 z m 2.75,0 h 2.75 V 30 H 88.5 Z m 2.75,0 H 94 V 30 H 91.25 Z M 80.25,30 H 83 v 2.75 h -2.75 z m 11,0 H 94 v 2.75 H 91.25 Z M 94,30 h 2.75 v 2.75 H 94 Z M 80.25,32.75 H 83 v 2.75 h -2.75 z m 11,0 H 94 V 35.5 H 91.25 Z M 83,35.5 h 2.75 v 2.75 H 83 Z m 11,0 h 2.75 v 2.75 H 94 Z"
             style="fill:#ffffff;fill-opacity:1;fill-rule:nonzero;stroke:none"
             id="path56" /></g></g></g><g
       id="g58"
       transform="matrix(2.8346457,0,0,-2.8346457,0,595.27559)"><g
         id="g60"><path
           d="m 103.5,15 h 30 v 30 h -30 z"
           style="fill:#000000;fill-opacity:1;fill-rule:nonzero;stroke:none"
           id="path62" /></g></g><g
       id="g64"
       transform="matrix(2.8346457,0,0,-2.8346457,0,595.27559)"><g
         id="g66"><g
           id="g68"><path
             d="m 137.5,19 h 22 v 22 h -22 z"
             style="fill:#000000;fill-opacity:1;fill-rule:nonzero;stroke:none"
             id="path70" /></g></g><g
         id="g72"><g
           id="g74"><path
             d="m 148.5,21.75 h 2.75 v 2.75 h -2.75 z m 5.5,0 h 2.75 V 24.5 H 154 Z m -11,2.75 h 2.75 v 2.75 H 143 Z m 2.75,0 h 2.75 v 2.75 h -2.75 z m 8.25,0 h 2.75 v 2.75 H 154 Z m 0,2.75 h 2.75 V 30 H 154 Z M 140.25,30 H 143 v 2.75 h -2.75 z m 2.75,0 h 2.75 v 2.75 H 143 Z m 2.75,0 h 2.75 v 2.75 h -2.75 z m 2.75,0 h 2.75 v 2.75 h -2.75 z m 2.75,0 H 154 v 2.75 h -2.75 z m -11,2.75 H 143 v 2.75 h -2.75 z m 5.5,0 h 2.75 v 2.75 h -2.75 z m 5.5,0 H 154 v 2.75 h -2.75 z m 2.75,0 h 2.75 V 35.5 H 154 Z m -8.25,2.75 h 2.75 v 2.75 h -2.75 z m 2.75,0 h 2.75 v 2.75 h -2.75 z m 5.5,0 h 2.75 v 2.75 H 154 Z"
             style="fill:#ffffff;fill-opacity:1;fill-rule:nonzero;stroke:none"
             id="path76" /></g></g></g><g
       id="g78"
       transform="matrix(2.8346457,0,0,-2.8346457,0,595.27559)"><g
         id="g80"><path
           d="m 163.5,15 h 30 v 30 h -30 z"
           style="fill:#000000;fill-opacity:1;fill-rule:nonzero;stroke:none"
           id="path82" /></g></g><g
       id="g84"
       transform="matrix(2.8346457,0,0,-2.8346457,0,595.27559)"><g
         id="g86"><g
           id="g88"><path
             d="m 197.5,19 h 22 v 22 h -22 z"
             style="fill:#000000;fill-opacity:1;fill-rule:nonzero;stroke:none"
             id="path90" /></g></g><g
         id="g92"><g
           id="g94"><path
             d="M 200.25,21.75 H 203 v 2.75 h -2.75 z m 2.75,0 h 2.75 V 24.5 H 203 Z m 8.25,0 H 214 v 2.75 h -2.75 z M 203,24.5 h 2.75 v 2.75 H 203 Z m 11,0 h 2.75 v 2.75 H 214 Z m -13.75,2.75 H 203 V 30 h -2.75 z m 5.5,0 h 2.75 V 30 h -2.75 z m 2.75,0 h 2.75 V 30 H 208.5 Z M 200.25,30 H 203 v 2.75 h -2.75 z m 2.75,0 h 2.75 v 2.75 H 203 Z m 0,2.75 h 2.75 V 35.5 H 203 Z m 2.75,0 h 2.75 v 2.75 h -2.75 z m 5.5,0 H 214 v 2.75 h -2.75 z M 203,35.5 h 2.75 v 2.75 H 203 Z m 2.75,0 h 2.75 v 2.75 h -2.75 z m 2.75,0 h 2.75 v 2.75 h -2.75 z m 2.75,0 H 214 v 2.75 h -2.75 z"
             style="fill:#ffffff;fill-opacity:1;fill-rule:nonzero;stroke:none"
             id="path96" /></g></g></g><g
       id="g98"
       transform="matrix(2.8346457,0,0,-2.8346457,0,595.27559)"><g
         id="g100"><path
           d="m 223.5,15 h 30 v 30 h -30 z"
           style="fill:#000000;fill-opacity:1;fill-rule:nonzero;stroke:none"
           id="path102" /></g></g><g
       id="g104"
       transform="matrix(2.8346457,0,0,-2.8346457,0,595.27559)"><g
         id="g106"><g
           id="g108"><path
             d="m 257.5,19 h 22 v 22 h -22 z"
             style="fill:#000000;fill-opacity:1;fill-rule:nonzero;stroke:none"
             id="path110" /></g></g><g
         id="g112"><g
           id="g114"><path
             d="M 260.25,21.75 H 263 v 2.75 h -2.75 z m 2.75,0 h 2.75 V 24.5 H 263 Z m 5.5,0 h 2.75 v 2.75 h -2.75 z m 5.5,0 h 2.75 V 24.5 H 274 Z M 260.25,24.5 H 263 v 2.75 h -2.75 z m 2.75,2.75 h 2.75 V 30 H 263 Z m 2.75,0 h 2.75 V 30 h -2.75 z m 2.75,0 h 2.75 V 30 h -2.75 z m 2.75,0 H 274 V 30 h -2.75 z m 2.75,0 h 2.75 V 30 H 274 Z M 263,30 h 2.75 v 2.75 H 263 Z m 5.5,0 h 2.75 v 2.75 h -2.75 z m 2.75,0 H 274 v 2.75 h -2.75 z m -11,2.75 H 263 v 2.75 h -2.75 z m 2.75,0 h 2.75 V 35.5 H 263 Z m 2.75,0 h 2.75 v 2.75 h -2.75 z M 263,35.5 h 2.75 v 2.75 H 263 Z m 5.5,0 h 2.75 v 2.75 h -2.75 z m 5.5,0 h 2.75 v 2.75 H 274 Z"
             style="fill:#ffffff;fill-opacity:1;fill-rule:nonzero;stroke:none"
             id="path116" /></g></g></g><g
       id="g118"
       transform="matrix(2.8346457,0,0,-2.8346457,0,595.27559)"><g
         id="g120"><path
           d="m 13.5,45 h 30 v 30 h -30 z"
           style="fill:#000000;fill-opacity:1;fill-rule:nonzero;stroke:none"
           id="path122" /></g></g><g
       id="g124"
       transform="matrix(2.8346457,0,0,-2.8346457,0,595.27559)"><g
         id="g126"><g
           id="g128"><path
             d="m 47.5,49 h 22 v 22 h -22 z"
             style="fill:#000000;fill-opacity:1;fill-rule:nonzero;stroke:none"
             id="path130" /></g></g><g
         id="g132"><g
           id="g134"><path
             d="M 50.25,51.75 H 53 v 2.75 h -2.75 z m 2.75,0 h 2.75 V 54.5 H 53 Z m 5.5,0 h 2.75 V 54.5 H 58.5 Z m 2.75,0 H 64 v 2.75 h -2.75 z m -5.5,2.75 h 2.75 v 2.75 h -2.75 z m 2.75,0 h 2.75 v 2.75 H 58.5 Z m 2.75,0 H 64 v 2.75 h -2.75 z m -11,2.75 H 53 V 60 h -2.75 z m 11,0 H 64 V 60 h -2.75 z m 2.75,0 h 2.75 V 60 H 64 Z M 50.25,60 H 53 v 2.75 h -2.75 z m 0,2.75 H 53 v 2.75 h -2.75 z m 2.75,0 h 2.75 V 65.5 H 53 Z m 2.75,0 h 2.75 v 2.75 h -2.75 z m 8.25,0 h 2.75 V 65.5 H 64 Z M 50.25,65.5 H 53 v 2.75 h -2.75 z m 5.5,0 h 2.75 v 2.75 h -2.75 z"
             style="fill:#ffffff;fill-opacity:1;fill-rule:nonzero;stroke:none"
             id="path136" /></g></g></g><g
       id="g138"
       transform="matrix(2.8346457,0,0,-2.8346457,0,595.27559)"><g
         id="g140"><path
           d="m 73.5,45 h 30 v 30 h -30 z"
           style="fill:#000000;fill-opacity:1;fill-rule:nonzero;stroke:none"
           id="path142" /></g></g><g
       id="g144"
       transform="matrix(2.8346457,0,0,-2.8346457,0,595.27559)"><g
         id="g146"><g
           id="g148"><path
             d="m 107.5,49 h 22 v 22 h -22 z"
             style="fill:#000000;fill-opacity:1;fill-rule:nonzero;stroke:none"
             id="path150" /></g></g><g
         id="g152"><g
           id="g154"><path
             d="m 113,51.75 h 2.75 V 54.5 H 113 Z m -2.75,2.75 H 113 v 2.75 h -2.75 z m 8.25,0 h 2.75 v 2.75 h -2.75 z m 2.75,0 H 124 v 2.75 h -2.75 z m -11,2.75 H 113 V 60 h -2.75 z m 11,0 H 124 V 60 h -2.75 z m -11,2.75 H 113 v 2.75 h -2.75 z m 2.75,0 h 2.75 v 2.75 H 113 Z m 5.5,0 h 2.75 v 2.75 h -2.75 z m 0,2.75 h 2.75 v 2.75 h -2.75 z m 2.75,0 H 124 v 2.75 h -2.75 z m 2.75,0 h 2.75 V 65.5 H 124 Z M 110.25,65.5 H 113 v 2.75 h -2.75 z m 2.75,0 h 2.75 v 2.75 H 113 Z m 5.5,0 h 2.75 v 2.75 h -2.75 z m 5.5,0 h 2.75 v 2.75 H 124 Z"
             style="fill:#ffffff;fill-opacity:1;fill-rule:nonzero;stroke:none"
             id="path156" /></g></g></g><g
       id="g158"
       transform="matrix(2.8346457,0,0,-2.8346457,0,595.27559)"><g
         id="g160"><path
           d="m 133.5,45 h 30 v 30 h -30 z"
           style="fill:#000000;fill-opacity:1;fill-rule:nonzero;stroke:none"
           id="path162" /></g></g><g
       id="g164"
       transform="matrix(2.8346457,0,0,-2.8346457,0,595.27559)"><g
         id="g166"><g
           id="g168"><path
             d="m 167.5,49 h 22 v 22 h -22 z"
             style="fill:#000000;fill-opacity:1;fill-rule:nonzero;stroke:none"
             id="path170" /></g></g><g
         id="g172"><g
           id="g174"><path
             d="M 170.25,51.75 H 173 v 2.75 h -2.75 z m 11,0 H 184 v 2.75 h -2.75 z m -5.5,2.75 h 2.75 v 2.75 h -2.75 z m 5.5,0 H 184 v 2.75 h -2.75 z M 173,57.25 h 2.75 V 60 H 173 Z m 5.5,0 h 2.75 V 60 H 178.5 Z M 175.75,60 h 2.75 v 2.75 h -2.75 z m 2.75,0 h 2.75 v 2.75 h -2.75 z m 2.75,0 H 184 v 2.75 h -2.75 z m 2.75,0 h 2.75 v 2.75 H 184 Z m -8.25,2.75 h 2.75 v 2.75 h -2.75 z m 5.5,0 H 184 v 2.75 h -2.75 z M 173,65.5 h 2.75 v 2.75 H 173 Z m 2.75,0 h 2.75 v 2.75 h -2.75 z m 5.5,0 H 184 v 2.75 h -2.75 z"
             style="fill:#ffffff;fill-opacity:1;fill-rule:nonzero;stroke:none"
             id="path176" /></g></g></g><g
       id="g178"
       transform="matrix(2.8346457,0,0,-2.8346457,0,595.27559)"><g
         id="g180"><path
           d="m 193.5,45 h 30 v 30 h -30 z"
           style="fill:#000000;fill-opacity:1;fill-rule:nonzero;stroke:none"
           id="path182" /></g></g><g
       id="g184"
       transform="matrix(2.8346457,0,0,-2.8346457,0,595.27559)"><g
         id="g186"><g
           id="g188"><path
             d="m 227.5,49 h 22 v 22 h -22 z"
             style="fill:#000000;fill-opacity:1;fill-rule:nonzero;stroke:none"
             id="path190" /></g></g><g
         id="g192"><g
           id="g194"><path
             d="m 235.75,51.75 h 2.75 v 2.75 h -2.75 z m 2.75,0 h 2.75 v 2.75 h -2.75 z m 0,2.75 h 2.75 v 2.75 h -2.75 z m 2.75,0 H 244 v 2.75 h -2.75 z m 2.75,0 h 2.75 v 2.75 H 244 Z m -13.75,2.75 H 233 V 60 h -2.75 z m 2.75,0 h 2.75 V 60 H 233 Z m 5.5,0 h 2.75 V 60 h -2.75 z m 5.5,0 h 2.75 V 60 H 244 Z M 233,60 h 2.75 v 2.75 H 233 Z m 8.25,0 H 244 v 2.75 h -2.75 z M 233,62.75 h 2.75 V 65.5 H 233 Z m 8.25,0 H 244 v 2.75 h -2.75 z m 2.75,0 h 2.75 V 65.5 H 244 Z M 230.25,65.5 H 233 v 2.75 h -2.75 z m 2.75,0 h 2.75 v 2.75 H 233 Z m 2.75,0 h 2.75 v 2.75 h -2.75 z m 2.75,0 h 2.75 v 2.75 h -2.75 z m 5.5,0 h 2.75 v 2.75 H 244 Z"
             style="fill:#ffffff;fill-opacity:1;fill-rule:nonzero;stroke:none"
             id="path196" /></g></g></g><g
       id="g198"
       transform="matrix(2.8346457,0,0,-2.8346457,0,595.27559)"><g
         id="g200"><path
           d="m 253.5,45 h 30 v 30 h -30 z"
           style="fill:#000000;fill-opacity:1;fill-rule:nonzero;stroke:none"
           id="path202" /></g></g><g
       id="g204"
       transform="matrix(2.8346457,0,0,-2.8346457,0,595.27559)"><g
         id="g206"><g
           id="g208"><path
             d="m 17.5,79 h 22 v 22 h -22 z"
             style="fill:#000000;fill-opacity:1;fill-rule:nonzero;stroke:none"
             id="path210" /></g></g><g
         id="g212"><g
           id="g214"><path
             d="m 25.75,81.75 h 2.75 v 2.75 h -2.75 z m 2.75,0 h 2.75 V 84.5 H 28.5 Z m 2.75,0 H 34 v 2.75 h -2.75 z m 2.75,0 h 2.75 V 84.5 H 34 Z M 31.25,84.5 H 34 v 2.75 h -2.75 z m -11,2.75 H 23 V 90 h -2.75 z m 2.75,0 h 2.75 V 90 H 23 Z m 2.75,0 H 28.5 V 90 h -2.75 z m 2.75,0 h 2.75 V 90 H 28.5 Z M 20.25,90 H 23 v 2.75 H 20.25 Z M 23,90 h 2.75 v 2.75 H 23 Z m 5.5,0 h 2.75 v 2.75 H 28.5 Z m -8.25,2.75 H 23 v 2.75 h -2.75 z m 5.5,0 h 2.75 v 2.75 h -2.75 z m 2.75,0 h 2.75 V 95.5 H 28.5 Z M 20.25,95.5 H 23 v 2.75 h -2.75 z m 2.75,0 h 2.75 v 2.75 H 23 Z m 2.75,0 h 2.75 v 2.75 h -2.75 z m 2.75,0 h 2.75 v 2.75 H 28.5 Z"
             style="fill:#ffffff;fill-opacity:1;fill-rule:nonzero;stroke:none"
             id="path216" /></g></g></g><g
       id="g218"
       transform="matrix(2.8346457,0,0,-2.8346457,0,595.27559)"><g
         id="g220"><path
           d="m 43.5,75 h 30 v 30 h -30 z"
           style="fill:#000000;fill-opacity:1;fill-rule:nonzero;stroke:none"
           id="path222" /></g></g><g
       id="g224"
       transform="matrix(2.8346457,0,0,-2.8346457,0,595.27559)"><g
         id="g226"><g
           id="g228"><path
             d="m 77.5,79 h 22 v 22 h -22 z"
             style="fill:#000000;fill-opacity:1;fill-rule:nonzero;stroke:none"
             id="path230" /></g></g><g
         id="g232"><g
           id="g234"><path
             d="m 83,81.75 h 2.75 V 84.5 H 83 Z m 11,0 h 2.75 V 84.5 H 94 Z M 83,84.5 h 2.75 v 2.75 H 83 Z m 2.75,0 h 2.75 v 2.75 h -2.75 z m 2.75,0 h 2.75 v 2.75 H 88.5 Z m 5.5,0 h 2.75 v 2.75 H 94 Z M 80.25,87.25 H 83 V 90 h -2.75 z m 2.75,0 h 2.75 V 90 H 83 Z m 2.75,0 H 88.5 V 90 h -2.75 z m 2.75,0 h 2.75 V 90 H 88.5 Z m 2.75,0 H 94 V 90 h -2.75 z m 2.75,0 h 2.75 V 90 H 94 Z M 88.5,90 h 2.75 v 2.75 H 88.5 Z m 2.75,0 H 94 v 2.75 H 91.25 Z M 94,90 h 2.75 v 2.75 H 94 Z m -11,2.75 h 2.75 V 95.5 H 83 Z m 8.25,0 H 94 v 2.75 h -2.75 z m 2.75,0 h 2.75 V 95.5 H 94 Z M 80.25,95.5 H 83 v 2.75 h -2.75 z m 11,0 H 94 v 2.75 h -2.75 z m 2.75,0 h 2.75 v 2.75 H 94 Z"
             style="fill:#ffffff;fill-opacity:1;fill-rule:nonzero;stroke:none"
             id="path236" /></g></g></g><g
       id="g238"
       transform="matrix(2.8346457,0,0,-2.8346457,0,595.27559)"><g
         id="g240"><path
           d="m 103.5,75 h 30 v 30 h -30 z"
           style="fill:#000000;fill-opacity:1;fill-rule:nonzero;stroke:none"
           id="path242" /></g></g><g
       id="g244"
       transform="matrix(2.8346457,0,0,-2.8346457,0,595.27559)"><g
         id="g246"><g
           id="g248"><path
             d="m 137.5,79 h 22 v 22 h -22 z"
             style="fill:#000000;fill-opacity:1;fill-rule:nonzero;stroke:none"
             id="path250" /></g></g><g
         id="g252"><g
           id="g254"><path
             d="m 143,81.75 h 2.75 V 84.5 H 143 Z m 8.25,0 H 154 v 2.75 h -2.75 z m -5.5,2.75 h 2.75 v 2.75 h -2.75 z m 2.75,0 h 2.75 v 2.75 h -2.75 z m 5.5,0 h 2.75 v 2.75 H 154 Z m -13.75,2.75 H 143 V 90 h -2.75 z m 13.75,0 h 2.75 V 90 H 154 Z M 143,90 h 2.75 v 2.75 H 143 Z m 2.75,0 h 2.75 v 2.75 h -2.75 z m 5.5,0 H 154 v 2.75 h -2.75 z m 2.75,0 h 2.75 v 2.75 H 154 Z m -8.25,2.75 h 2.75 v 2.75 h -2.75 z m 8.25,0 h 2.75 V 95.5 H 154 Z m -11,2.75 h 2.75 v 2.75 H 143 Z m 5.5,0 h 2.75 v 2.75 h -2.75 z m 2.75,0 H 154 v 2.75 h -2.75 z m 2.75,0 h 2.75 v 2.75 H 154 Z"
             style="fill:#ffffff;fill-opacity:1;fill-rule:nonzero;stroke:none"
             id="path256" /></g></g></g><g
       id="g258"
       transform="matrix(2.8346457,0,0,-2.8346457,0,595.27559)"><g
         id="g260"><path
           d="m 163.5,75 h 30 v 30 h -30 z"
           style="fill:#000000;fill-opacity:1;fill-rule:nonzero;stroke:none"
           id="path262" /></g></g><g
       id="g264"
       transform="matrix(2.8346457,0,0,-2.8346457,0,595.27559)"><g
         id="g266"><g
           id="g268"><path
             d="m 197.5,79 h 22 v 22 h -22 z"
             style="fill:#000000;fill-opacity:1;fill-rule:nonzero;stroke:none"
             id="path270" /></g></g><g
         id="g272"><g
           id="g274"><path
             d="m 203,81.75 h 2.75 V 84.5 H 203 Z m 2.75,0 h 2.75 v 2.75 h -2.75 z m 2.75,0 h 2.75 V 84.5 H 208.5 Z M 203,84.5 h 2.75 v 2.75 H 203 Z m 0,2.75 h 2.75 V 90 H 203 Z m 5.5,0 h 2.75 V 90 h -2.75 z m 5.5,0 h 2.75 V 90 H 214 Z M 203,90 h 2.75 v 2.75 H 203 Z m 2.75,0 h 2.75 v 2.75 h -2.75 z m -5.5,2.75 H 203 v 2.75 h -2.75 z m 2.75,0 h 2.75 V 95.5 H 203 Z m 2.75,0 h 2.75 v 2.75 h -2.75 z m 2.75,0 h 2.75 v 2.75 h -2.75 z m 2.75,0 H 214 v 2.75 h -2.75 z m 2.75,0 h 2.75 V 95.5 H 214 Z m -5.5,2.75 h 2.75 v 2.75 h -2.75 z m 2.75,0 H 214 v 2.75 h -2.75 z"
             style="fill:#ffffff;fill-opacity:1;fill-rule:nonzero;stroke:none"
             id="path276" /></g></g></g><g
       id="g278"
       transform="matrix(2.8346457,0,0,-2.8346457,0,595.27559)"><g
         id="g280"><path
           d="m 223.5,75 h 30 v 30 h -30 z"
           style="fill:#000000;fill-opacity:1;fill-rule:nonzero;stroke:none"
           id="path282" /></g></g><g
       id="g284"
       transform="matrix(2.8346457,0,0,-2.8346457,0,595.27559)"><g
         id="g286"><g
           id="g288"><path
             d="m 257.5,79 h 22 v 22 h -22 z"
             style="fill:#000000;fill-opacity:1;fill-rule:nonzero;stroke:none"
             id="path290" /></g></g><g
         id="g292"><g
           id="g294"><path
             d="M 260.25,81.75 H 263 v 2.75 h -2.75 z m 13.75,0 h 2.75 V 84.5 H 274 Z M 260.25,84.5 H 263 v 2.75 h -2.75 z m 5.5,0 h 2.75 v 2.75 h -2.75 z m 2.75,0 h 2.75 v 2.75 h -2.75 z m 5.5,0 h 2.75 v 2.75 H 274 Z m -13.75,2.75 H 263 V 90 h -2.75 z m 2.75,0 h 2.75 V 90 H 263 Z m 8.25,0 H 274 V 90 h -2.75 z m 2.75,0 h 2.75 V 90 H 274 Z M 260.25,90 H 263 v 2.75 h -2.75 z m 2.75,0 h 2.75 v 2.75 H 263 Z m 2.75,0 h 2.75 v 2.75 h -2.75 z m 5.5,0 H 274 v 2.75 h -2.75 z m -11,2.75 H 263 v 2.75 h -2.75 z m 2.75,0 h 2.75 V 95.5 H 263 Z m 5.5,0 h 2.75 v 2.75 h -2.75 z m 0,2.75 h 2.75 v 2.75 h -2.75 z m 2.75,0 H 274 v 2.75 h -2.75 z m 2.75,0 h 2.75 v 2.75 H 274 Z"
             style="fill:#ffffff;fill-opacity:1;fill-rule:nonzero;stroke:none"
             id="path296" /></g></g></g><g
       id="g298"
       transform="matrix(2.8346457,0,0,-2.8346457,0,595.27559)"><g
         id="g300"><path
           d="m 13.5,105 h 30 v 30 h -30 z"
           style="fill:#000000;fill-opacity:1;fill-rule:nonzero;stroke:none"
           id="path302" /></g></g><g
       id="g304"
       transform="matrix(2.8346457,0,0,-2.8346457,0,595.27559)"><g
         id="g306"><g
           id="g308"><path
             d="m 47.5,109 h 22 v 22 h -22 z"
             style="fill:#000000;fill-opacity:1;fill-rule:nonzero;stroke:none"
             id="path310" /></g></g><g
         id="g312"><g
           id="g314"><path
             d="M 50.25,111.75 H 53 v 2.75 h -2.75 z m 11,0 H 64 v 2.75 h -2.75 z m 2.75,0 h 2.75 v 2.75 H 64 Z m -11,2.75 h 2.75 v 2.75 H 53 Z m 5.5,0 h 2.75 v 2.75 H 58.5 Z m 2.75,0 H 64 v 2.75 h -2.75 z m 2.75,0 h 2.75 v 2.75 H 64 Z m -8.25,2.75 H 58.5 V 120 h -2.75 z m 5.5,0 H 64 V 120 h -2.75 z m -11,2.75 H 53 v 2.75 h -2.75 z m 5.5,0 h 2.75 v 2.75 h -2.75 z m 8.25,0 h 2.75 v 2.75 H 64 Z m -8.25,2.75 h 2.75 v 2.75 h -2.75 z m 2.75,0 h 2.75 v 2.75 H 58.5 Z m 2.75,0 H 64 v 2.75 h -2.75 z m 2.75,0 h 2.75 v 2.75 H 64 Z M 50.25,125.5 H 53 v 2.75 h -2.75 z m 2.75,0 h 2.75 v 2.75 H 53 Z m 5.5,0 h 2.75 v 2.75 H 58.5 Z m 2.75,0 H 64 v 2.75 h -2.75 z"
             style="fill:#ffffff;fill-opacity:1;fill-rule:nonzero;stroke:none"
             id="path316" /></g></g></g><g
       id="g318"
       transform="matrix(2.8346457,0,0,-2.8346457,0,595.27559)"><g
         id="g320"><path
           d="m 73.5,105 h 30 v 30 h -30 z"
           style="fill:#000000;fill-opacity:1;fill-rule:nonzero;stroke:none"
           id="path322" /></g></g><g
       id="g324"
       transform="matrix(2.8346457,0,0,-2.8346457,0,595.27559)"><g
         id="g326"><g
           id="g328"><path
             d="m 107.5,109 h 22 v 22 h -22 z"
             style="fill:#000000;fill-opacity:1;fill-rule:nonzero;stroke:none"
             id="path330" /></g></g><g
         id="g332"><g
           id="g334"><path
             d="M 110.25,111.75 H 113 v 2.75 h -2.75 z m 5.5,0 h 2.75 v 2.75 h -2.75 z m -5.5,2.75 H 113 v 2.75 h -2.75 z m 5.5,0 h 2.75 v 2.75 h -2.75 z m 5.5,0 H 124 v 2.75 h -2.75 z m 2.75,0 h 2.75 v 2.75 H 124 Z m -13.75,2.75 H 113 V 120 h -2.75 z m 11,0 H 124 V 120 h -2.75 z M 113,120 h 2.75 v 2.75 H 113 Z m 2.75,0 h 2.75 v 2.75 h -2.75 z m 2.75,0 h 2.75 v 2.75 h -2.75 z m 5.5,0 h 2.75 v 2.75 H 124 Z m -13.75,2.75 H 113 v 2.75 h -2.75 z m 2.75,0 h 2.75 v 2.75 H 113 Z m 8.25,0 H 124 v 2.75 h -2.75 z m 2.75,0 h 2.75 v 2.75 H 124 Z m -11,2.75 h 2.75 v 2.75 H 113 Z m 2.75,0 h 2.75 v 2.75 h -2.75 z m 2.75,0 h 2.75 v 2.75 h -2.75 z m 2.75,0 H 124 v 2.75 h -2.75 z"
             style="fill:#ffffff;fill-opacity:1;fill-rule:nonzero;stroke:none"
             id="path336" /></g></g></g><g
       id="g338"
       transform="matrix(2.8346457,0,0,-2.8346457,0,595.27559)"><g
         id="g340"><path
           d="m 133.5,105 h 30 v 30 h -30 z"
           style="fill:#000000;fill-opacity:1;fill-rule:nonzero;stroke:none"
           id="path342" /></g></g><g
       id="g344"
       transform="matrix(2.8346457,0,0,-2.8346457,0,595.27559)"><g
         id="g346"><g
           id="g348"><path
             d="m 167.5,109 h 22 v 22 h -22 z"
             style="fill:#000000;fill-opacity:1;fill-rule:nonzero;stroke:none"
             id="path350" /></g></g><g
         id="g352"><g
           id="g354"><path
             d="M 181.25,111.75 H 184 v 2.75 h -2.75 z M 173,114.5 h 2.75 v 2.75 H 173 Z m 2.75,0 h 2.75 v 2.75 h -2.75 z m 2.75,0 h 2.75 v 2.75 h -2.75 z m 2.75,0 H 184 v 2.75 h -2.75 z m 2.75,0 h 2.75 v 2.75 H 184 Z m -13.75,2.75 H 173 V 120 h -2.75 z m 2.75,0 h 2.75 V 120 H 173 Z m 5.5,0 h 2.75 V 120 H 178.5 Z M 173,120 h 2.75 v 2.75 H 173 Z m 2.75,0 h 2.75 v 2.75 h -2.75 z m 2.75,0 h 2.75 v 2.75 h -2.75 z m 2.75,0 H 184 v 2.75 h -2.75 z m -11,2.75 H 173 v 2.75 h -2.75 z m 8.25,0 h 2.75 v 2.75 h -2.75 z m 2.75,0 H 184 v 2.75 h -2.75 z m 2.75,0 h 2.75 v 2.75 H 184 Z m -5.5,2.75 h 2.75 v 2.75 h -2.75 z"
             style="fill:#ffffff;fill-opacity:1;fill-rule:nonzero;stroke:none"
             id="path356" /></g></g></g><g
       id="g358"
       transform="matrix(2.8346457,0,0,-2.8346457,0,595.27559)"><g
         id="g360"><path
           d="m 193.5,105 h 30 v 30 h -30 z"
           style="fill:#000000;fill-opacity:1;fill-rule:nonzero;stroke:none"
           id="path362" /></g></g><g
       id="g364"
       transform="matrix(2.8346457,0,0,-2.8346457,0,595.27559)"><g
         id="g366"><g
           id="g368"><path
             d="m 227.5,109 h 22 v 22 h -22 z"
             style="fill:#000000;fill-opacity:1;fill-rule:nonzero;stroke:none"
             id="path370" /></g></g><g
         id="g372"><g
           id="g374"><path
             d="m 238.5,111.75 h 2.75 v 2.75 h -2.75 z m 5.5,0 h 2.75 v 2.75 H 244 Z m -11,2.75 h 2.75 v 2.75 H 233 Z m 5.5,0 h 2.75 v 2.75 h -2.75 z m -8.25,2.75 H 233 V 120 h -2.75 z m 2.75,0 h 2.75 V 120 H 233 Z m 5.5,0 h 2.75 V 120 h -2.75 z m 2.75,0 H 244 V 120 h -2.75 z m -11,2.75 H 233 v 2.75 h -2.75 z m 2.75,0 h 2.75 v 2.75 H 233 Z m 2.75,0 h 2.75 v 2.75 h -2.75 z m 2.75,0 h 2.75 v 2.75 h -2.75 z m 5.5,0 h 2.75 v 2.75 H 244 Z m -5.5,2.75 h 2.75 v 2.75 h -2.75 z m 2.75,0 H 244 v 2.75 h -2.75 z m -5.5,2.75 h 2.75 v 2.75 h -2.75 z m 2.75,0 h 2.75 v 2.75 h -2.75 z m 2.75,0 H 244 v 2.75 h -2.75 z m 2.75,0 h 2.75 v 2.75 H 244 Z"
             style="fill:#ffffff;fill-opacity:1;fill-rule:nonzero;stroke:none"
             id="path376" /></g></g></g><g
       id="g378"
       transform="matrix(2.8346457,0,0,-2.8346457,0,595.27559)"><g
         id="g380"><path
           d="m 253.5,105 h 30 v 30 h -30 z"
           style="fill:#000000;fill-opacity:1;fill-rule:nonzero;stroke:none"
           id="path382" /></g></g><g
       id="g384"
       transform="matrix(2.8346457,0,0,-2.8346457,0,595.27559)"><g
         id="g386"><g
           id="g388"><path
             d="m 17.5,139 h 22 v 22 h -22 z"
             style="fill:#000000;fill-opacity:1;fill-rule:nonzero;stroke:none"
             id="path390" /></g></g><g
         id="g392"><g
           id="g394"><path
             d="m 25.75,141.75 h 2.75 v 2.75 h -2.75 z m 2.75,0 h 2.75 v 2.75 H 28.5 Z m -8.25,5.5 H 23 V 150 h -2.75 z m 5.5,0 H 28.5 V 150 H 25.75 Z M 20.25,150 H 23 v 2.75 h -2.75 z m 2.75,0 h 2.75 v 2.75 H 23 Z m 11,0 h 2.75 v 2.75 H 34 Z m -2.75,2.75 H 34 v 2.75 h -2.75 z m 2.75,0 h 2.75 v 2.75 H 34 Z M 20.25,155.5 H 23 v 2.75 h -2.75 z m 11,0 H 34 v 2.75 h -2.75 z"
             style="fill:#ffffff;fill-opacity:1;fill-rule:nonzero;stroke:none"
             id="path396" /></g></g></g><g
       id="g398"
       transform="matrix(2.8346457,0,0,-2.8346457,0,595.27559)"><g
         id="g400"><path
           d="m 43.5,135 h 30 v 30 h -30 z"
           style="fill:#000000;fill-opacity:1;fill-rule:nonzero;stroke:none"
           id="path402" /></g></g><g
       id="g404"
       transform="matrix(2.8346457,0,0,-2.8346457,0,595.27559)"><g
         id="g406"><g
           id="g408"><path
             d="m 77.5,139 h 22 v 22 h -22 z"
             style="fill:#000000;fill-opacity:1;fill-rule:nonzero;stroke:none"
             id="path410" /></g></g><g
         id="g412"><g
           id="g414"><path
             d="m 83,141.75 h 2.75 v 2.75 H 83 Z m 8.25,0 H 94 v 2.75 h -2.75 z m -8.25,5.5 h 2.75 V 150 H 83 Z m 2.75,0 H 88.5 V 150 h -2.75 z m 2.75,0 h 2.75 V 150 H 88.5 Z m 2.75,0 H 94 V 150 h -2.75 z m 2.75,0 h 2.75 V 150 H 94 Z M 80.25,150 H 83 v 2.75 h -2.75 z m 5.5,0 h 2.75 v 2.75 h -2.75 z m 2.75,0 h 2.75 v 2.75 H 88.5 Z m 2.75,0 H 94 v 2.75 h -2.75 z m 2.75,0 h 2.75 v 2.75 H 94 Z m -13.75,2.75 H 83 v 2.75 h -2.75 z m 5.5,0 h 2.75 v 2.75 h -2.75 z m 5.5,0 H 94 v 2.75 h -2.75 z m 2.75,0 h 2.75 v 2.75 H 94 Z M 80.25,155.5 H 83 v 2.75 h -2.75 z m 2.75,0 h 2.75 v 2.75 H 83 Z m 2.75,0 h 2.75 v 2.75 h -2.75 z m 2.75,0 h 2.75 v 2.75 H 88.5 Z m 5.5,0 h 2.75 v 2.75 H 94 Z"
             style="fill:#ffffff;fill-opacity:1;fill-rule:nonzero;stroke:none"
             id="path416" /></g></g></g><g
       id="g418"
       transform="matrix(2.8346457,0,0,-2.8346457,0,595.27559)"><g
         id="g420"><path
           d="m 103.5,135 h 30 v 30 h -30 z"
           style="fill:#000000;fill-opacity:1;fill-rule:nonzero;stroke:none"
           id="path422" /></g></g><g
       id="g424"
       transform="matrix(2.8346457,0,0,-2.8346457,0,595.27559)"><g
         id="g426"><g
           id="g428"><path
             d="m 137.5,139 h 22 v 22 h -22 z"
             style="fill:#000000;fill-opacity:1;fill-rule:nonzero;stroke:none"
             id="path430" /></g></g><g
         id="g432"><g
           id="g434"><path
             d="m 143,141.75 h 2.75 v 2.75 H 143 Z m 5.5,0 h 2.75 v 2.75 h -2.75 z m 5.5,0 h 2.75 v 2.75 H 154 Z m -13.75,2.75 H 143 v 2.75 h -2.75 z m 5.5,0 h 2.75 v 2.75 h -2.75 z m 2.75,0 h 2.75 v 2.75 h -2.75 z m 5.5,0 h 2.75 v 2.75 H 154 Z m -13.75,2.75 H 143 V 150 h -2.75 z m 2.75,0 h 2.75 V 150 H 143 Z m 2.75,0 h 2.75 V 150 h -2.75 z m 2.75,0 h 2.75 V 150 H 148.5 Z M 143,150 h 2.75 v 2.75 H 143 Z m 11,0 h 2.75 v 2.75 H 154 Z m -13.75,2.75 H 143 v 2.75 h -2.75 z m 2.75,0 h 2.75 v 2.75 H 143 Z m 5.5,0 h 2.75 v 2.75 h -2.75 z m 2.75,0 H 154 v 2.75 h -2.75 z m -11,2.75 H 143 v 2.75 h -2.75 z m 2.75,0 h 2.75 v 2.75 H 143 Z m 5.5,0 h 2.75 v 2.75 h -2.75 z m 2.75,0 H 154 v 2.75 h -2.75 z"
             style="fill:#ffffff;fill-opacity:1;fill-rule:nonzero;stroke:none"
             id="path436" /></g></g></g><g
       id="g438"
       transform="matrix(2.8346457,0,0,-2.8346457,0,595.27559)"><g
         id="g440"><path
           d="m 163.5,135 h 30 v 30 h -30 z"
           style="fill:#000000;fill-opacity:1;fill-rule:nonzero;stroke:none"
           id="path442" /></g></g><g
       id="g444"
       transform="matrix(2.8346457,0,0,-2.8346457,0,595.27559)"><g
         id="g446"><g
           id="g448"><path
             d="m 197.5,139 h 22 v 22 h -22 z"
             style="fill:#000000;fill-opacity:1;fill-rule:nonzero;stroke:none"
             id="path450" /></g></g><g
         id="g452"><g
           id="g454"><path
             d="m 203,141.75 h 2.75 v 2.75 H 203 Z m 2.75,0 h 2.75 v 2.75 h -2.75 z m 8.25,0 h 2.75 v 2.75 H 214 Z m -13.75,2.75 H 203 v 2.75 h -2.75 z m 5.5,0 h 2.75 v 2.75 h -2.75 z m -5.5,2.75 H 203 V 150 h -2.75 z m 0,2.75 H 203 v 2.75 h -2.75 z m 2.75,0 h 2.75 v 2.75 H 203 Z m 8.25,0 H 214 v 2.75 h -2.75 z m -8.25,2.75 h 2.75 v 2.75 H 203 Z m 2.75,0 h 2.75 v 2.75 h -2.75 z m 2.75,0 h 2.75 v 2.75 h -2.75 z m 5.5,0 h 2.75 v 2.75 H 214 Z m -8.25,2.75 h 2.75 v 2.75 h -2.75 z m 2.75,0 h 2.75 v 2.75 h -2.75 z"
             style="fill:#ffffff;fill-opacity:1;fill-rule:nonzero;stroke:none"
             id="path456" /></g></g></g><g
       id="g458"
       transform="matrix(2.8346457,0,0,-2.8346457,0,595.27559)"><g
         id="g460"><path
           d="m 223.5,135 h 30 v 30 h -30 z"
           style="fill:#000000;fill-opacity:1;fill-rule:nonzero;stroke:none"
           id="path462" /></g></g><g
       id="g464"
       transform="matrix(2.8346457,0,0,-2.8346457,0,595.27559)"><g
         id="g466"><g
           id="g468"><path
             d="m 257.5,139 h 22 v 22 h -22 z"
             style="fill:#000000;fill-opacity:1;fill-rule:nonzero;stroke:none"
             id="path470" /></g></g><g
         id="g472"><g
           id="g474"><path
             d="m 263,141.75 h 2.75 v 2.75 H 263 Z m 2.75,0 h 2.75 v 2.75 h -2.75 z m 2.75,0 h 2.75 v 2.75 h -2.75 z m 5.5,0 h 2.75 v 2.75 H 274 Z m -13.75,2.75 H 263 v 2.75 h -2.75 z m 5.5,0 h 2.75 v 2.75 h -2.75 z m 2.75,0 h 2.75 v 2.75 h -2.75 z m 2.75,0 H 274 v 2.75 h -2.75 z m -11,2.75 H 263 V 150 h -2.75 z m 11,0 H 274 V 150 h -2.75 z m 2.75,0 h 2.75 V 150 H 274 Z m -8.25,2.75 h 2.75 v 2.75 h -2.75 z m 5.5,0 H 274 v 2.75 h -2.75 z m 2.75,0 h 2.75 v 2.75 H 274 Z m -11,2.75 h 2.75 v 2.75 H 263 Z m 2.75,0 h 2.75 v 2.75 h -2.75 z m 2.75,0 h 2.75 v 2.75 h -2.75 z m 2.75,0 H 274 v 2.75 h -2.75 z m 2.75,2.75 h 2.75 v 2.75 H 274 Z"
             style="fill:#ffffff;fill-opacity:1;fill-rule:nonzero;stroke:none"
             id="path476" /></g></g></g><g
       id="g478"
       transform="matrix(2.8346457,0,0,-2.8346457,0,595.27559)"><g
         id="g480"><path
           d="m 13.5,165 h 30 v 30 h -30 z"
           style="fill:#000000;fill-opacity:1;fill-rule:nonzero;stroke:none"
           id="path482" /></g></g><g
       id="g484"
       transform="matrix(2.8346457,0,0,-2.8346457,0,595.27559)"><g
         id="g486"><g
           id="g488"><path
             d="m 47.5,169 h 22 v 22 h -22 z"
             style="fill:#000000;fill-opacity:1;fill-rule:nonzero;stroke:none"
             id="path490" /></g></g><g
         id="g492"><g
           id="g494"><path
             d="M 50.25,171.75 H 53 v 2.75 h -2.75 z m 8.25,0 h 2.75 v 2.75 H 58.5 Z m 2.75,0 H 64 v 2.75 h -2.75 z m -11,2.75 H 53 v 2.75 h -2.75 z m 8.25,0 h 2.75 v 2.75 H 58.5 Z m 5.5,0 h 2.75 v 2.75 H 64 Z m -8.25,2.75 H 58.5 V 180 h -2.75 z m 2.75,0 h 2.75 V 180 H 58.5 Z m 2.75,0 H 64 V 180 h -2.75 z m 2.75,0 h 2.75 V 180 H 64 Z M 53,180 h 2.75 v 2.75 H 53 Z m 2.75,0 h 2.75 v 2.75 h -2.75 z m 8.25,0 h 2.75 v 2.75 H 64 Z m -13.75,2.75 H 53 v 2.75 h -2.75 z m 2.75,0 h 2.75 v 2.75 H 53 Z m 8.25,0 H 64 v 2.75 h -2.75 z m 2.75,0 h 2.75 v 2.75 H 64 Z M 50.25,185.5 H 53 v 2.75 h -2.75 z m 2.75,0 h 2.75 v 2.75 H 53 Z m 8.25,0 H 64 v 2.75 h -2.75 z m 2.75,0 h 2.75 v 2.75 H 64 Z"
             style="fill:#ffffff;fill-opacity:1;fill-rule:nonzero;stroke:none"
             id="path496" /></g></g></g><g
       id="g498"
       transform="matrix(2.8346457,0,0,-2.8346457,0,595.27559)"><g
         id="g500"><path
           d="m 73.5,165 h 30 v 30 h -30 z"
           style="fill:#000000;fill-opacity:1;fill-rule:nonzero;stroke:none"
           id="path502" /></g></g><g
       id="g504"
       transform="matrix(2.8346457,0,0,-2.8346457,0,595.27559)"><g
         id="g506"><g
           id="g508"><path
             d="m 107.5,169 h 22 v 22 h -22 z"
             style="fill:#000000;fill-opacity:1;fill-rule:nonzero;stroke:none"
             id="path510" /></g></g><g
         id="g512"><g
           id="g514"><path
             d="M 110.25,171.75 H 113 v 2.75 h -2.75 z m 5.5,0 h 2.75 v 2.75 h -2.75 z m 5.5,0 H 124 v 2.75 h -2.75 z M 113,174.5 h 2.75 v 2.75 H 113 Z m 2.75,0 h 2.75 v 2.75 h -2.75 z m 2.75,0 h 2.75 v 2.75 h -2.75 z m -8.25,2.75 H 113 V 180 h -2.75 z m 5.5,0 h 2.75 V 180 h -2.75 z m 2.75,0 h 2.75 V 180 h -2.75 z m 2.75,0 H 124 V 180 h -2.75 z M 118.5,180 h 2.75 v 2.75 h -2.75 z m -8.25,5.5 H 113 v 2.75 h -2.75 z m 8.25,0 h 2.75 v 2.75 h -2.75 z"
             style="fill:#ffffff;fill-opacity:1;fill-rule:nonzero;stroke:none"
             id="path516" /></g></g></g><g
       id="g518"
       transform="matrix(2.8346457,0,0,-2.8346457,0,595.27559)"><g
         id="g520"><path
           d="m 133.5,165 h 30 v 30 h -30 z"
           style="fill:#000000;fill-opacity:1;fill-rule:nonzero;stroke:none"
           id="path522" /></g></g><g
       id="g524"
       transform="matrix(2.8346457,0,0,-2.8346457,0,595.27559)"><g
         id="g526"><g
           id="g528"><path
             d="m 167.5,169 h 22 v 22 h -22 z"
             style="fill:#000000;fill-opacity:1;fill-rule:nonzero;stroke:none"
             id="path530" /></g></g><g
         id="g532"><g
           id="g534"><path
             d="M 170.25,171.75 H 173 v 2.75 h -2.75 z m 2.75,0 h 2.75 v 2.75 H 173 Z m 11,0 h 2.75 v 2.75 H 184 Z m -13.75,2.75 H 173 v 2.75 h -2.75 z m 8.25,0 h 2.75 v 2.75 h -2.75 z m 2.75,0 H 184 v 2.75 h -2.75 z m 2.75,0 h 2.75 v 2.75 H 184 Z m -11,2.75 h 2.75 V 180 H 173 Z m 5.5,0 h 2.75 V 180 h -2.75 z m 5.5,0 h 2.75 V 180 H 184 Z m -8.25,2.75 h 2.75 v 2.75 h -2.75 z m 8.25,0 h 2.75 v 2.75 H 184 Z m -11,2.75 h 2.75 v 2.75 H 173 Z m 8.25,0 H 184 v 2.75 h -2.75 z M 173,185.5 h 2.75 v 2.75 H 173 Z"
             style="fill:#ffffff;fill-opacity:1;fill-rule:nonzero;stroke:none"
             id="path536" /></g></g></g><g
       id="g538"
       transform="matrix(2.8346457,0,0,-2.8346457,0,595.27559)"><g
         id="g540"><path
           d="m 193.5,165 h 30 v 30 h -30 z"
           style="fill:#000000;fill-opacity:1;fill-rule:nonzero;stroke:none"
           id="path542" /></g></g><g
       id="g544"
       transform="matrix(2.8346457,0,0,-2.8346457,0,595.27559)"><g
         id="g546"><g
           id="g548"><path
             d="m 227.5,169 h 22 v 22 h -22 z"
             style="fill:#000000;fill-opacity:1;fill-rule:nonzero;stroke:none"
             id="path550" /></g></g><g
         id="g552"><g
           id="g554"><path
             d="M 230.25,171.75 H 233 v 2.75 h -2.75 z m 2.75,0 h 2.75 v 2.75 H 233 Z m 0,2.75 h 2.75 v 2.75 H 233 Z m 2.75,0 h 2.75 v 2.75 h -2.75 z m 2.75,0 h 2.75 v 2.75 h -2.75 z m 5.5,0 h 2.75 v 2.75 H 244 Z m -8.25,2.75 h 2.75 V 180 h -2.75 z m 5.5,0 H 244 V 180 h -2.75 z m -5.5,2.75 h 2.75 v 2.75 h -2.75 z m -5.5,2.75 H 233 v 2.75 h -2.75 z m 8.25,0 h 2.75 v 2.75 h -2.75 z m 5.5,0 h 2.75 v 2.75 H 244 Z m 0,2.75 h 2.75 v 2.75 H 244 Z"
             style="fill:#ffffff;fill-opacity:1;fill-rule:nonzero;stroke:none"
             id="path556" /></g></g></g><g
       id="g558"
       transform="matrix(2.8346457,0,0,-2.8346457,0,595.27559)"><g
         id="g560"><path
           d="m 253.5,165 h 30 v 30 h -30 z"
           style="fill:#000000;fill-opacity:1;fill-rule:nonzero;stroke:none"
           id="path562" /></g></g><g
       id="g564"
       transform="matrix(2.8346457,0,0,-2.8346457,158.93433,595.27559)"><g
         id="g566"><path
           d="m 10.82,205.23 -0.349,-1.343 H 10.088 L 10.701,206 h 0.311 l 0.402,-1.287 0.084,-0.358 0.012,-10e-4 0.088,0.359 0.408,1.287 h 0.31 l 0.614,-2.113 h -0.383 l -0.332,1.343 -0.057,0.286 h -0.012 l -0.06,-0.286 -0.424,-1.343 h -0.308 l -0.422,1.343 -0.055,0.256 h -0.012 z m 3.028,0 -0.35,-1.343 H 13.115 L 13.729,206 h 0.31 l 0.402,-1.287 0.084,-0.358 0.012,-10e-4 0.088,0.359 0.408,1.287 h 0.311 l 0.613,-2.113 h -0.383 l -0.332,1.343 -0.056,0.286 h -0.012 l -0.061,-0.286 -0.424,-1.343 h -0.308 l -0.422,1.343 -0.055,0.256 h -0.011 z m 3.027,0 -0.35,-1.343 H 16.143 L 16.756,206 h 0.31 l 0.403,-1.287 0.084,-0.358 0.011,-10e-4 0.088,0.359 0.409,1.287 h 0.31 l 0.613,-2.113 h -0.382 l -0.332,1.343 -0.057,0.286 h -0.012 l -0.06,-0.286 -0.424,-1.343 h -0.309 l -0.422,1.343 -0.054,0.256 H 16.92 Z m 2.664,0.77 v -0.395 H 19.154 V 206 Z m 1.51,-0.26 c -0.203,0 -0.348,-0.072 -0.434,-0.216 -0.086,-0.143 -0.129,-0.323 -0.129,-0.54 v -0.082 c 0,-0.211 0.044,-0.389 0.13,-0.534 0.087,-0.145 0.231,-0.218 0.433,-0.218 0.139,0 0.254,0.046 0.346,0.136 0.091,0.091 0.136,0.2 0.136,0.329 h 0.348 l 0.004,-0.011 c 0.005,-0.213 -0.071,-0.392 -0.228,-0.538 -0.157,-0.145 -0.359,-0.218 -0.606,-0.218 -0.306,0 -0.541,0.1 -0.704,0.301 -0.164,0.202 -0.245,0.453 -0.245,0.753 v 0.082 c 0,0.304 0.081,0.556 0.244,0.756 0.163,0.201 0.398,0.301 0.705,0.301 0.224,0 0.42,-0.071 0.589,-0.212 0.168,-0.141 0.249,-0.303 0.243,-0.485 l -0.004,-0.012 h -0.346 c 0,0.115 -0.048,0.211 -0.145,0.29 -0.097,0.079 -0.21,0.118 -0.337,0.118 z m 2.562,0.26 h 0.397 c -0.021,-0.068 -0.035,-0.137 -0.043,-0.207 -0.008,-0.07 -0.012,-0.143 -0.012,-0.219 v -1.017 c 0,-0.23 -0.073,-0.405 -0.219,-0.527 -0.145,-0.121 -0.338,-0.182 -0.578,-0.182 -0.242,0 -0.44,0.063 -0.593,0.191 -0.153,0.128 -0.225,0.268 -0.217,0.422 l 0.004,0.012 h 0.367 c 0,-0.089 0.039,-0.165 0.116,-0.228 0.077,-0.063 0.178,-0.095 0.302,-0.095 0.138,0 0.245,0.037 0.32,0.109 0.076,0.072 0.113,0.17 0.113,0.294 v 0.209 H 23.15 c -0.28,0 -0.501,0.057 -0.665,0.171 -0.163,0.114 -0.245,0.271 -0.245,0.473 0,0.198 0.058,0.353 0.173,0.466 0.115,0.113 0.283,0.169 0.503,0.169 0.133,0 0.257,-0.034 0.372,-0.103 0.115,-0.068 0.209,-0.153 0.28,-0.254 0.002,0.049 0.006,0.098 0.013,0.147 0.007,0.049 0.017,0.105 0.03,0.169 z m -0.638,-0.281 c -0.115,0 -0.202,-0.028 -0.26,-0.082 -0.059,-0.055 -0.088,-0.129 -0.088,-0.223 0,-0.105 0.047,-0.197 0.14,-0.275 0.093,-0.078 0.217,-0.118 0.372,-0.118 h 0.431 v 0.344 c -0.033,0.093 -0.106,0.175 -0.218,0.246 -0.112,0.072 -0.238,0.108 -0.377,0.108 z M 24.928,206 v -3.047 H 24.543 V 206 Z m 1.008,0 v -2.113 H 25.551 V 206 Z m 0,-2.654 v -0.393 h -0.385 v 0.393 z m 2.396,1.677 v -0.041 c 0,-0.339 -0.073,-0.614 -0.219,-0.822 -0.146,-0.208 -0.349,-0.312 -0.609,-0.312 -0.132,0 -0.247,0.024 -0.345,0.074 -0.098,0.049 -0.18,0.121 -0.247,0.215 v -1.184 H 26.527 V 206 h 0.315 l 0.047,-0.279 c 0.067,0.105 0.153,0.185 0.256,0.239 0.102,0.054 0.223,0.081 0.363,0.081 0.256,0 0.458,-0.093 0.604,-0.28 0.147,-0.187 0.22,-0.433 0.22,-0.738 z m -0.385,-0.041 v 0.041 c 0,0.213 -0.044,0.383 -0.133,0.512 -0.088,0.129 -0.223,0.194 -0.404,0.194 -0.122,0 -0.223,-0.03 -0.304,-0.088 -0.08,-0.059 -0.144,-0.14 -0.194,-0.245 v -0.916 c 0.048,-0.097 0.113,-0.175 0.194,-0.233 0.082,-0.058 0.182,-0.087 0.3,-0.087 0.183,0 0.318,0.077 0.407,0.23 0.09,0.153 0.134,0.35 0.134,0.592 z M 29.221,206 v -0.395 H 28.836 V 206 Z m 1.066,0 v -2.113 H 29.902 V 206 Z m 0,-2.654 v -0.393 h -0.385 v 0.393 z m 0.502,1.578 v 0.043 c 0,0.314 0.085,0.571 0.255,0.772 0.17,0.201 0.401,0.302 0.692,0.302 0.292,0 0.522,-0.1 0.692,-0.301 0.169,-0.2 0.254,-0.458 0.254,-0.773 v -0.043 c 0,-0.314 -0.085,-0.572 -0.255,-0.774 -0.17,-0.201 -0.402,-0.302 -0.695,-0.302 -0.29,0 -0.52,0.101 -0.689,0.303 -0.169,0.203 -0.254,0.46 -0.254,0.773 z m 0.385,0.043 v -0.043 c 0,-0.222 0.047,-0.406 0.141,-0.553 0.095,-0.147 0.234,-0.221 0.417,-0.221 0.185,0 0.326,0.074 0.421,0.221 0.096,0.147 0.144,0.331 0.144,0.553 v 0.043 c 0,0.224 -0.048,0.409 -0.143,0.554 -0.095,0.146 -0.234,0.219 -0.418,0.219 -0.186,0 -0.326,-0.073 -0.421,-0.219 -0.094,-0.145 -0.141,-0.33 -0.141,-0.554 z m 3.344,1.56 v -3.371 h -0.309 v 3.371 z m 2.652,-3.412 c -0.301,0 -0.553,0.114 -0.756,0.34 -0.203,0.227 -0.305,0.522 -0.305,0.887 v 0.543 c 0,0.367 0.092,0.651 0.274,0.853 0.182,0.202 0.413,0.303 0.691,0.303 0.268,0 0.483,-0.093 0.644,-0.278 0.161,-0.186 0.241,-0.426 0.241,-0.72 0,-0.27 -0.076,-0.492 -0.227,-0.668 -0.151,-0.176 -0.353,-0.264 -0.607,-0.264 -0.124,0 -0.239,0.021 -0.347,0.062 -0.107,0.041 -0.202,0.098 -0.286,0.171 v -0.045 c 0,-0.262 0.062,-0.474 0.187,-0.637 0.124,-0.163 0.288,-0.244 0.491,-0.244 0.094,0 0.175,0.01 0.245,0.03 0.07,0.02 0.136,0.047 0.2,0.079 l 0.082,-0.295 c -0.062,-0.033 -0.141,-0.061 -0.237,-0.084 -0.096,-0.022 -0.192,-0.033 -0.29,-0.033 z m -0.131,1.283 c 0.168,0 0.299,0.061 0.394,0.182 0.094,0.121 0.141,0.275 0.141,0.463 0,0.198 -0.044,0.364 -0.132,0.497 -0.088,0.134 -0.21,0.2 -0.368,0.2 -0.166,0 -0.305,-0.071 -0.416,-0.213 -0.11,-0.142 -0.166,-0.343 -0.166,-0.605 v -0.231 c 0.048,-0.088 0.119,-0.159 0.211,-0.212 0.093,-0.054 0.205,-0.081 0.336,-0.081 z m 2.061,0.268 -0.444,-0.779 h -0.443 l 0.685,1.045 -0.705,1.068 h 0.446 l 0.468,-0.799 0.469,0.799 h 0.442 l -0.705,-1.068 0.685,-1.045 h -0.449 z m 2.013,1.074 c -0.108,0 -0.203,-0.008 -0.286,-0.024 -0.083,-0.016 -0.162,-0.045 -0.239,-0.085 l -0.059,0.295 c 0.082,0.039 0.175,0.068 0.279,0.087 0.103,0.019 0.205,0.028 0.305,0.028 0.298,0 0.54,-0.099 0.726,-0.297 0.185,-0.198 0.278,-0.482 0.278,-0.853 v -0.678 c 0,-0.361 -0.085,-0.634 -0.257,-0.819 -0.171,-0.186 -0.405,-0.279 -0.702,-0.279 -0.245,0 -0.453,0.091 -0.624,0.274 -0.171,0.182 -0.257,0.416 -0.257,0.701 0,0.298 0.081,0.532 0.243,0.702 0.161,0.17 0.379,0.255 0.654,0.255 0.117,0 0.223,-0.024 0.319,-0.071 0.096,-0.048 0.176,-0.118 0.239,-0.21 v 0.129 c 0,0.279 -0.056,0.49 -0.169,0.632 -0.112,0.142 -0.262,0.213 -0.45,0.213 z m 0.061,-0.994 c -0.158,0 -0.282,-0.06 -0.374,-0.182 -0.092,-0.121 -0.138,-0.279 -0.138,-0.474 0,-0.197 0.05,-0.358 0.149,-0.484 0.099,-0.125 0.218,-0.188 0.359,-0.188 0.184,0 0.323,0.064 0.419,0.191 0.096,0.128 0.143,0.316 0.143,0.565 v 0.246 c -0.041,0.095 -0.109,0.173 -0.204,0.234 -0.094,0.061 -0.212,0.092 -0.354,0.092 z m 2.838,1.781 v -3.371 h -0.309 v 3.371 z m 3.695,-1.437 h -0.369 c 0,0.203 -0.059,0.362 -0.176,0.477 -0.117,0.116 -0.282,0.173 -0.496,0.173 -0.215,0 -0.386,-0.086 -0.514,-0.26 -0.127,-0.173 -0.191,-0.389 -0.191,-0.648 v -0.51 c 0,-0.256 0.064,-0.471 0.191,-0.644 0.128,-0.173 0.299,-0.26 0.514,-0.26 0.214,0 0.379,0.058 0.496,0.174 0.117,0.116 0.176,0.273 0.176,0.472 h 0.369 l 0.004,-0.011 c 0.005,-0.283 -0.087,-0.51 -0.277,-0.681 -0.191,-0.171 -0.446,-0.257 -0.768,-0.257 -0.322,0 -0.584,0.114 -0.786,0.343 -0.203,0.229 -0.304,0.518 -0.304,0.868 v 0.506 c 0,0.35 0.101,0.639 0.304,0.867 0.202,0.228 0.464,0.342 0.786,0.342 0.316,0 0.571,-0.09 0.764,-0.27 0.192,-0.179 0.286,-0.403 0.281,-0.669 z m 0.836,-0.92 v -1.217 H 48.158 V 206 h 0.385 v -1.561 c 0.056,-0.085 0.127,-0.154 0.214,-0.204 0.086,-0.05 0.183,-0.075 0.29,-0.075 0.148,0 0.26,0.042 0.335,0.125 0.075,0.083 0.112,0.212 0.112,0.387 V 206 h 0.385 v -1.324 c 0,-0.281 -0.063,-0.49 -0.189,-0.625 -0.125,-0.136 -0.301,-0.203 -0.526,-0.203 -0.129,0 -0.246,0.028 -0.352,0.085 -0.107,0.056 -0.196,0.135 -0.269,0.237 z m 2.766,1.871 c 0.175,0 0.325,-0.025 0.449,-0.074 0.124,-0.05 0.223,-0.112 0.299,-0.186 l -0.151,-0.25 c -0.071,0.065 -0.156,0.116 -0.255,0.154 -0.098,0.037 -0.212,0.055 -0.342,0.055 -0.179,0 -0.317,-0.065 -0.416,-0.196 -0.099,-0.131 -0.151,-0.298 -0.155,-0.501 l 0.006,-0.01 h 1.371 v -0.24 c 0,-0.286 -0.073,-0.516 -0.219,-0.688 -0.145,-0.171 -0.361,-0.257 -0.646,-0.257 -0.245,0 -0.457,0.1 -0.636,0.299 -0.179,0.2 -0.268,0.451 -0.268,0.751 v 0.086 c 0,0.313 0.087,0.567 0.26,0.763 0.174,0.196 0.408,0.294 0.703,0.294 z M 51.25,204.15 c 0.159,0 0.279,0.051 0.359,0.153 0.081,0.101 0.121,0.228 0.121,0.379 v 0.05 h -0.974 l -0.004,-0.009 c 0.021,-0.164 0.077,-0.301 0.168,-0.41 0.091,-0.108 0.201,-0.163 0.33,-0.163 z m 2.156,1.59 c -0.203,0 -0.347,-0.072 -0.433,-0.216 -0.086,-0.143 -0.129,-0.323 -0.129,-0.54 v -0.082 c 0,-0.211 0.043,-0.389 0.13,-0.534 0.086,-0.145 0.23,-0.218 0.432,-0.218 0.14,0 0.255,0.046 0.346,0.136 0.091,0.091 0.137,0.2 0.137,0.329 h 0.347 l 0.004,-0.011 c 0.005,-0.213 -0.07,-0.392 -0.227,-0.538 -0.157,-0.145 -0.359,-0.218 -0.607,-0.218 -0.306,0 -0.54,0.1 -0.704,0.301 -0.163,0.202 -0.245,0.453 -0.245,0.753 v 0.082 c 0,0.304 0.081,0.556 0.244,0.756 0.163,0.201 0.398,0.301 0.705,0.301 0.224,0 0.42,-0.071 0.589,-0.212 0.169,-0.141 0.25,-0.303 0.243,-0.485 l -0.004,-0.012 h -0.345 c 0,0.115 -0.049,0.211 -0.146,0.29 -0.097,0.079 -0.209,0.118 -0.337,0.118 z m 1.901,-0.715 0.685,0.975 h 0.453 l -0.826,-1.152 0.723,-0.961 h -0.461 l -0.578,0.832 h -0.246 v -1.766 H 54.672 V 206 h 0.385 v -0.975 z m 2.252,1.016 c 0.175,0 0.325,-0.025 0.449,-0.074 0.124,-0.05 0.223,-0.112 0.299,-0.186 l -0.151,-0.25 c -0.071,0.065 -0.156,0.116 -0.255,0.154 -0.098,0.037 -0.212,0.055 -0.342,0.055 -0.179,0 -0.317,-0.065 -0.416,-0.196 -0.099,-0.131 -0.151,-0.298 -0.155,-0.501 l 0.006,-0.01 h 1.371 v -0.24 c 0,-0.286 -0.073,-0.516 -0.219,-0.688 -0.145,-0.171 -0.361,-0.257 -0.646,-0.257 -0.245,0 -0.457,0.1 -0.636,0.299 -0.179,0.2 -0.268,0.451 -0.268,0.751 v 0.086 c 0,0.313 0.087,0.567 0.26,0.763 0.174,0.196 0.408,0.294 0.703,0.294 z M 57.5,204.15 c 0.159,0 0.279,0.051 0.359,0.153 0.081,0.101 0.121,0.228 0.121,0.379 v 0.05 h -0.974 l -0.004,-0.009 c 0.021,-0.164 0.077,-0.301 0.168,-0.41 0.091,-0.108 0.201,-0.163 0.33,-0.163 z m 2.297,0.077 0.053,-0.358 c -0.017,-0.005 -0.039,-0.01 -0.065,-0.015 -0.026,-0.004 -0.053,-0.006 -0.082,-0.006 -0.114,0 -0.216,0.03 -0.304,0.091 -0.087,0.062 -0.161,0.147 -0.221,0.256 l -0.037,-0.308 H 58.797 V 206 h 0.385 v -1.51 c 0.037,-0.087 0.091,-0.155 0.161,-0.203 0.069,-0.048 0.155,-0.072 0.257,-0.072 z m 2.986,1.056 c 0,0.141 -0.056,0.252 -0.17,0.334 -0.113,0.082 -0.267,0.123 -0.461,0.123 -0.198,0 -0.364,-0.047 -0.498,-0.142 -0.134,-0.095 -0.201,-0.234 -0.201,-0.416 h -0.367 l -0.004,0.011 c -0.006,0.258 0.099,0.464 0.317,0.618 0.219,0.153 0.469,0.23 0.753,0.23 0.302,0 0.547,-0.07 0.735,-0.209 0.187,-0.139 0.281,-0.324 0.281,-0.553 0,-0.213 -0.078,-0.392 -0.234,-0.537 -0.157,-0.144 -0.385,-0.254 -0.684,-0.328 -0.249,-0.062 -0.428,-0.135 -0.539,-0.218 -0.111,-0.082 -0.166,-0.186 -0.166,-0.309 0,-0.14 0.051,-0.253 0.153,-0.339 0.102,-0.087 0.249,-0.13 0.441,-0.13 0.205,0 0.363,0.051 0.473,0.154 0.11,0.103 0.165,0.238 0.165,0.405 h 0.368 l 0.003,-0.012 c 0.007,-0.225 -0.082,-0.423 -0.266,-0.594 -0.184,-0.17 -0.432,-0.256 -0.743,-0.256 -0.289,0 -0.525,0.074 -0.706,0.223 -0.182,0.148 -0.273,0.333 -0.273,0.555 0,0.211 0.084,0.386 0.253,0.525 0.169,0.139 0.403,0.245 0.704,0.316 0.249,0.06 0.422,0.134 0.52,0.222 0.097,0.088 0.146,0.197 0.146,0.327 z M 64.072,206 v -2.113 H 63.688 V 206 Z m 0,-2.654 v -0.393 h -0.384 v 0.393 z m 0.955,2.353 1.155,-1.551 v -0.261 h -1.6 v 0.304 h 1.129 l -1.143,1.539 V 206 h 1.68 v -0.301 z m 2.494,0.342 c 0.176,0 0.326,-0.025 0.45,-0.074 0.123,-0.05 0.223,-0.112 0.299,-0.186 l -0.151,-0.25 c -0.071,0.065 -0.156,0.116 -0.255,0.154 -0.098,0.037 -0.212,0.055 -0.343,0.055 -0.178,0 -0.317,-0.065 -0.416,-0.196 -0.098,-0.131 -0.15,-0.298 -0.154,-0.501 l 0.006,-0.01 h 1.371 v -0.24 c 0,-0.286 -0.073,-0.516 -0.219,-0.688 -0.145,-0.171 -0.361,-0.257 -0.646,-0.257 -0.245,0 -0.457,0.1 -0.636,0.299 -0.179,0.2 -0.268,0.451 -0.268,0.751 v 0.086 c 0,0.313 0.087,0.567 0.26,0.763 0.174,0.196 0.408,0.294 0.702,0.294 z m -0.058,-1.891 c 0.159,0 0.279,0.051 0.359,0.153 0.081,0.101 0.121,0.228 0.121,0.379 v 0.05 h -0.974 l -0.004,-0.009 c 0.021,-0.164 0.077,-0.301 0.168,-0.41 0.091,-0.108 0.201,-0.163 0.33,-0.163 z M 69.18,206 v -0.395 H 68.795 V 206 Z m 0,-1.711 v -0.394 h -0.385 v 0.394 z m 2.062,0.111 v 0.301 h 0.336 c 0.177,0 0.307,0.042 0.389,0.125 0.082,0.084 0.123,0.213 0.123,0.389 0,0.173 -0.046,0.304 -0.139,0.392 -0.092,0.089 -0.22,0.133 -0.383,0.133 -0.16,0 -0.286,-0.044 -0.378,-0.133 -0.091,-0.088 -0.137,-0.207 -0.137,-0.357 h -0.367 l -0.006,0.012 c -0.007,0.239 0.075,0.429 0.245,0.569 0.17,0.14 0.384,0.21 0.643,0.21 0.265,0 0.482,-0.074 0.652,-0.223 0.17,-0.148 0.255,-0.352 0.255,-0.611 0,-0.148 -0.036,-0.283 -0.107,-0.402 -0.071,-0.12 -0.192,-0.208 -0.362,-0.264 0.142,-0.061 0.248,-0.15 0.319,-0.267 0.071,-0.116 0.107,-0.233 0.107,-0.35 0,-0.259 -0.078,-0.459 -0.235,-0.599 -0.156,-0.14 -0.366,-0.21 -0.629,-0.21 -0.261,0 -0.473,0.075 -0.635,0.226 -0.162,0.15 -0.24,0.333 -0.234,0.548 l 0.004,0.011 h 0.369 c 0,-0.145 0.046,-0.262 0.136,-0.35 0.091,-0.088 0.211,-0.132 0.36,-0.132 0.158,0 0.277,0.042 0.358,0.127 0.081,0.085 0.121,0.208 0.121,0.371 0,0.152 -0.036,0.271 -0.107,0.356 -0.071,0.086 -0.191,0.128 -0.362,0.128 z m 3.526,0.516 v -0.674 c 0,-0.362 -0.081,-0.64 -0.244,-0.835 -0.162,-0.194 -0.383,-0.292 -0.663,-0.292 -0.278,0 -0.499,0.098 -0.661,0.292 -0.162,0.195 -0.243,0.473 -0.243,0.835 v 0.674 c 0,0.362 0.081,0.64 0.244,0.834 0.163,0.194 0.384,0.291 0.664,0.291 0.28,0 0.501,-0.097 0.661,-0.29 0.161,-0.193 0.242,-0.472 0.242,-0.835 z m -0.385,-0.756 v 0.834 c 0,0.248 -0.044,0.434 -0.132,0.559 -0.088,0.125 -0.216,0.187 -0.386,0.187 -0.169,0 -0.299,-0.063 -0.388,-0.188 -0.09,-0.126 -0.135,-0.312 -0.135,-0.558 v -0.834 c 0,-0.246 0.044,-0.431 0.133,-0.556 0.088,-0.124 0.217,-0.186 0.386,-0.186 0.17,0 0.299,0.062 0.388,0.186 0.089,0.125 0.134,0.31 0.134,0.556 z m 2.224,-0.273 H 76.264 V 206 h 0.384 v -1.564 c 0.041,-0.088 0.099,-0.155 0.174,-0.204 0.076,-0.048 0.172,-0.072 0.289,-0.072 0.138,0 0.244,0.046 0.318,0.138 0.073,0.092 0.11,0.237 0.11,0.434 V 206 h 0.387 v -1.342 -0.015 c 0.014,-0.14 0.062,-0.255 0.143,-0.346 0.082,-0.091 0.188,-0.137 0.32,-0.137 0.142,0 0.248,0.043 0.32,0.13 0.072,0.087 0.107,0.234 0.107,0.442 V 206 h 0.385 v -1.264 c 0,-0.297 -0.062,-0.519 -0.187,-0.667 -0.125,-0.147 -0.295,-0.221 -0.51,-0.221 -0.146,0 -0.274,0.035 -0.383,0.105 -0.109,0.07 -0.197,0.165 -0.264,0.285 -0.05,-0.13 -0.126,-0.228 -0.227,-0.293 -0.101,-0.065 -0.222,-0.097 -0.362,-0.097 -0.141,0 -0.264,0.027 -0.371,0.083 -0.106,0.055 -0.193,0.133 -0.262,0.233 z m 3.497,0 H 79.76 V 206 h 0.385 v -1.564 c 0.04,-0.088 0.098,-0.155 0.173,-0.204 0.076,-0.048 0.172,-0.072 0.289,-0.072 0.138,0 0.244,0.046 0.318,0.138 0.073,0.092 0.11,0.237 0.11,0.434 V 206 h 0.387 v -1.342 -0.015 c 0.014,-0.14 0.062,-0.255 0.143,-0.346 0.082,-0.091 0.188,-0.137 0.32,-0.137 0.142,0 0.248,0.043 0.32,0.13 0.072,0.087 0.108,0.234 0.108,0.442 V 206 h 0.384 v -1.264 c 0,-0.297 -0.062,-0.519 -0.187,-0.667 -0.125,-0.147 -0.295,-0.221 -0.51,-0.221 -0.146,0 -0.273,0.035 -0.383,0.105 -0.109,0.07 -0.197,0.165 -0.263,0.285 -0.051,-0.13 -0.127,-0.228 -0.228,-0.293 -0.101,-0.065 -0.222,-0.097 -0.362,-0.097 -0.141,0 -0.264,0.027 -0.37,0.083 -0.107,0.055 -0.194,0.133 -0.263,0.233 z m 4.517,2.64 v -3.371 h -0.308 v 3.371 z m 2.178,-3.371 H 86.307 V 206 h 0.384 v -1.125 l -0.037,-1.15 0.01,-0.002 0.918,2.277 h 0.256 l 0.922,-2.283 0.01,0.002 -0.04,1.156 V 206 h 0.385 v -2.844 h -0.492 l -0.906,2.311 H 87.705 Z M 91.047,206 h 0.396 c -0.02,-0.068 -0.035,-0.137 -0.043,-0.207 -0.007,-0.07 -0.011,-0.143 -0.011,-0.219 v -1.017 c 0,-0.23 -0.073,-0.405 -0.219,-0.527 -0.146,-0.121 -0.339,-0.182 -0.578,-0.182 -0.242,0 -0.44,0.063 -0.593,0.191 -0.153,0.128 -0.226,0.268 -0.218,0.422 l 0.004,0.012 h 0.367 c 0,-0.089 0.039,-0.165 0.117,-0.228 0.077,-0.063 0.178,-0.095 0.301,-0.095 0.138,0 0.245,0.037 0.321,0.109 0.075,0.072 0.113,0.17 0.113,0.294 v 0.209 h -0.418 c -0.28,0 -0.502,0.057 -0.665,0.171 -0.164,0.114 -0.245,0.271 -0.245,0.473 0,0.198 0.057,0.353 0.173,0.466 0.115,0.113 0.283,0.169 0.503,0.169 0.132,0 0.256,-0.034 0.372,-0.103 0.115,-0.068 0.208,-0.153 0.28,-0.254 10e-4,0.049 0.005,0.098 0.013,0.147 0.007,0.049 0.017,0.105 0.03,0.169 z m -0.639,-0.281 c -0.114,0 -0.201,-0.028 -0.26,-0.082 -0.058,-0.055 -0.087,-0.129 -0.087,-0.223 0,-0.105 0.046,-0.197 0.139,-0.275 0.093,-0.078 0.217,-0.118 0.372,-0.118 h 0.432 v 0.344 c -0.034,0.093 -0.107,0.175 -0.219,0.246 -0.112,0.072 -0.237,0.108 -0.377,0.108 z m 2.539,-1.492 0.053,-0.358 c -0.017,-0.005 -0.038,-0.01 -0.064,-0.015 -0.026,-0.004 -0.054,-0.006 -0.082,-0.006 -0.115,0 -0.216,0.03 -0.304,0.091 -0.088,0.062 -0.162,0.147 -0.222,0.256 l -0.037,-0.308 H 91.947 V 206 h 0.385 v -1.51 c 0.038,-0.087 0.092,-0.155 0.161,-0.203 0.07,-0.048 0.155,-0.072 0.257,-0.072 z m 1.008,0.798 0.686,0.975 h 0.453 l -0.826,-1.152 0.722,-0.961 h -0.461 l -0.578,0.832 h -0.246 v -1.766 H 93.32 V 206 h 0.385 v -0.975 z m 2.252,1.016 c 0.176,0 0.326,-0.025 0.449,-0.074 0.124,-0.05 0.224,-0.112 0.299,-0.186 l -0.15,-0.25 c -0.072,0.065 -0.157,0.116 -0.255,0.154 -0.099,0.037 -0.213,0.055 -0.343,0.055 -0.178,0 -0.317,-0.065 -0.416,-0.196 -0.099,-0.131 -0.15,-0.298 -0.154,-0.501 l 0.006,-0.01 h 1.371 v -0.24 c 0,-0.286 -0.073,-0.516 -0.219,-0.688 -0.146,-0.171 -0.361,-0.257 -0.647,-0.257 -0.244,0 -0.456,0.1 -0.635,0.299 -0.179,0.2 -0.269,0.451 -0.269,0.751 v 0.086 c 0,0.313 0.087,0.567 0.261,0.763 0.174,0.196 0.408,0.294 0.702,0.294 z m -0.059,-1.891 c 0.159,0 0.279,0.051 0.36,0.153 0.081,0.101 0.121,0.228 0.121,0.379 v 0.05 h -0.975 l -0.004,-0.009 c 0.021,-0.164 0.077,-0.301 0.168,-0.41 0.092,-0.108 0.202,-0.163 0.33,-0.163 z m 2.297,0.077 0.053,-0.358 c -0.017,-0.005 -0.038,-0.01 -0.064,-0.015 -0.026,-0.004 -0.054,-0.006 -0.082,-0.006 -0.115,0 -0.216,0.03 -0.304,0.091 -0.088,0.062 -0.162,0.147 -0.222,0.256 l -0.037,-0.308 H 97.445 V 206 h 0.385 v -1.51 c 0.038,-0.087 0.092,-0.155 0.161,-0.203 0.07,-0.048 0.155,-0.072 0.257,-0.072 z m 2.987,1.056 c 0,0.141 -0.057,0.252 -0.17,0.334 -0.114,0.082 -0.267,0.123 -0.461,0.123 -0.198,0 -0.364,-0.047 -0.498,-0.142 -0.134,-0.095 -0.201,-0.234 -0.201,-0.416 h -0.368 l -0.004,0.011 c -0.006,0.258 0.1,0.464 0.318,0.618 0.218,0.153 0.469,0.23 0.753,0.23 0.302,0 0.547,-0.07 0.734,-0.209 0.188,-0.139 0.281,-0.324 0.281,-0.553 0,-0.213 -0.078,-0.392 -0.234,-0.537 -0.156,-0.144 -0.384,-0.254 -0.684,-0.328 -0.248,-0.062 -0.428,-0.135 -0.539,-0.218 -0.11,-0.082 -0.166,-0.186 -0.166,-0.309 0,-0.14 0.051,-0.253 0.154,-0.339 0.102,-0.087 0.249,-0.13 0.44,-0.13 0.206,0 0.364,0.051 0.474,0.154 0.11,0.103 0.165,0.238 0.165,0.405 h 0.367 l 0.004,-0.012 c 0.006,-0.225 -0.082,-0.423 -0.267,-0.594 -0.184,-0.17 -0.432,-0.256 -0.743,-0.256 -0.289,0 -0.524,0.074 -0.706,0.223 -0.182,0.148 -0.272,0.333 -0.272,0.555 0,0.211 0.084,0.386 0.253,0.525 0.168,0.139 0.403,0.245 0.704,0.316 0.248,0.06 0.422,0.134 0.519,0.222 0.098,0.088 0.147,0.197 0.147,0.327 z m 1.289,0.717 v -2.113 h -0.385 V 206 Z m 0,-2.654 v -0.393 h -0.385 v 0.393 z m 0.955,2.353 1.154,-1.551 v -0.261 h -1.6 v 0.304 h 1.129 l -1.142,1.539 V 206 h 1.679 v -0.301 z m 2.494,0.342 c 0.176,0 0.325,-0.025 0.449,-0.074 0.124,-0.05 0.223,-0.112 0.299,-0.186 l -0.15,-0.25 c -0.072,0.065 -0.157,0.116 -0.255,0.154 -0.099,0.037 -0.213,0.055 -0.343,0.055 -0.178,0 -0.317,-0.065 -0.416,-0.196 -0.099,-0.131 -0.15,-0.298 -0.154,-0.501 l 0.005,-0.01 h 1.372 v -0.24 c 0,-0.286 -0.073,-0.516 -0.219,-0.688 -0.146,-0.171 -0.362,-0.257 -0.647,-0.257 -0.244,0 -0.456,0.1 -0.635,0.299 -0.179,0.2 -0.269,0.451 -0.269,0.751 v 0.086 c 0,0.313 0.087,0.567 0.261,0.763 0.174,0.196 0.408,0.294 0.702,0.294 z m -0.059,-1.891 c 0.159,0 0.279,0.051 0.36,0.153 0.08,0.101 0.121,0.228 0.121,0.379 v 0.05 h -0.975 l -0.004,-0.009 c 0.021,-0.164 0.077,-0.301 0.168,-0.41 0.091,-0.108 0.201,-0.163 0.33,-0.163 z m 1.717,1.85 v -0.395 h -0.385 V 206 Z m 0,-1.711 v -0.394 h -0.385 v 0.394 z m 3.379,1.711 v -0.301 h -1.367 l -0.004,-0.01 0.748,-0.814 c 0.165,-0.178 0.294,-0.345 0.386,-0.501 0.092,-0.156 0.137,-0.311 0.137,-0.466 0,-0.23 -0.075,-0.42 -0.227,-0.569 -0.152,-0.149 -0.355,-0.224 -0.61,-0.224 -0.3,0 -0.534,0.084 -0.704,0.25 -0.169,0.167 -0.25,0.373 -0.244,0.617 l 0.004,0.012 h 0.369 c 0,-0.182 0.047,-0.324 0.14,-0.425 0.093,-0.101 0.238,-0.151 0.435,-0.151 0.136,0 0.246,0.048 0.329,0.145 0.082,0.097 0.124,0.217 0.124,0.359 0,0.114 -0.03,0.226 -0.089,0.336 -0.059,0.109 -0.172,0.257 -0.339,0.443 l -0.932,1.035 V 206 Z m 2.252,0 v -0.301 h -1.367 l -0.004,-0.01 0.748,-0.814 c 0.165,-0.178 0.294,-0.345 0.386,-0.501 0.091,-0.156 0.137,-0.311 0.137,-0.466 0,-0.23 -0.075,-0.42 -0.227,-0.569 -0.152,-0.149 -0.355,-0.224 -0.611,-0.224 -0.299,0 -0.533,0.084 -0.703,0.25 -0.169,0.167 -0.25,0.373 -0.244,0.617 l 0.004,0.012 h 0.369 c 0,-0.182 0.047,-0.324 0.14,-0.425 0.093,-0.101 0.238,-0.151 0.434,-0.151 0.137,0 0.247,0.048 0.33,0.145 0.082,0.097 0.124,0.217 0.124,0.359 0,0.114 -0.03,0.226 -0.089,0.336 -0.06,0.109 -0.172,0.257 -0.339,0.443 l -0.932,1.035 V 206 Z m 1.795,-2.113 H 114.91 V 206 h 0.385 v -1.564 c 0.04,-0.088 0.098,-0.155 0.174,-0.204 0.075,-0.048 0.172,-0.072 0.289,-0.072 0.138,0 0.244,0.046 0.317,0.138 0.074,0.092 0.111,0.237 0.111,0.434 V 206 h 0.386 v -1.342 -0.015 c 0.015,-0.14 0.062,-0.255 0.144,-0.346 0.081,-0.091 0.188,-0.137 0.319,-0.137 0.142,0 0.249,0.043 0.32,0.13 0.072,0.087 0.108,0.234 0.108,0.442 V 206 h 0.385 v -1.264 c 0,-0.297 -0.063,-0.519 -0.188,-0.667 -0.125,-0.147 -0.295,-0.221 -0.51,-0.221 -0.145,0 -0.273,0.035 -0.382,0.105 -0.11,0.07 -0.198,0.165 -0.264,0.285 -0.051,-0.13 -0.127,-0.228 -0.228,-0.293 -0.101,-0.065 -0.221,-0.097 -0.362,-0.097 -0.141,0 -0.264,0.027 -0.37,0.083 -0.106,0.055 -0.194,0.133 -0.263,0.233 z m 3.496,0 h -0.344 V 206 h 0.385 v -1.564 c 0.04,-0.088 0.098,-0.155 0.174,-0.204 0.075,-0.048 0.172,-0.072 0.289,-0.072 0.138,0 0.244,0.046 0.317,0.138 0.074,0.092 0.111,0.237 0.111,0.434 V 206 h 0.386 v -1.342 -0.015 c 0.015,-0.14 0.063,-0.255 0.144,-0.346 0.081,-0.091 0.188,-0.137 0.319,-0.137 0.142,0 0.249,0.043 0.321,0.13 0.071,0.087 0.107,0.234 0.107,0.442 V 206 h 0.385 v -1.264 c 0,-0.297 -0.063,-0.519 -0.188,-0.667 -0.125,-0.147 -0.295,-0.221 -0.51,-0.221 -0.145,0 -0.273,0.035 -0.382,0.105 -0.11,0.07 -0.198,0.165 -0.264,0.285 -0.051,-0.13 -0.127,-0.228 -0.228,-0.293 -0.1,-0.065 -0.221,-0.097 -0.362,-0.097 -0.14,0 -0.264,0.027 -0.37,0.083 -0.106,0.055 -0.194,0.133 -0.263,0.233 z m 4.518,2.64 v -3.371 h -0.309 v 3.371 z M 124.953,206 h 0.873 c 0.373,0 0.671,-0.114 0.897,-0.341 0.225,-0.227 0.338,-0.522 0.338,-0.886 v -0.388 c 0,-0.362 -0.113,-0.657 -0.338,-0.886 -0.226,-0.228 -0.524,-0.343 -0.897,-0.343 h -0.873 z m 0.385,-2.541 h 0.488 c 0.263,0 0.471,0.087 0.622,0.26 0.152,0.173 0.228,0.394 0.228,0.662 v 0.392 c 0,0.271 -0.076,0.493 -0.228,0.666 -0.151,0.174 -0.359,0.26 -0.622,0.26 h -0.488 z m 2.594,2.541 v -2.113 h -0.385 V 206 Z m 0,-2.654 v -0.393 h -0.385 v 0.393 z m 1.451,2.394 c -0.203,0 -0.348,-0.072 -0.434,-0.216 -0.086,-0.143 -0.129,-0.323 -0.129,-0.54 v -0.082 c 0,-0.211 0.044,-0.389 0.13,-0.534 0.087,-0.145 0.231,-0.218 0.433,-0.218 0.139,0 0.254,0.046 0.346,0.136 0.091,0.091 0.136,0.2 0.136,0.329 h 0.348 l 0.004,-0.011 c 0.005,-0.213 -0.071,-0.392 -0.228,-0.538 -0.157,-0.145 -0.359,-0.218 -0.606,-0.218 -0.306,0 -0.541,0.1 -0.704,0.301 -0.164,0.202 -0.245,0.453 -0.245,0.753 v 0.082 c 0,0.304 0.081,0.556 0.244,0.756 0.162,0.201 0.398,0.301 0.705,0.301 0.224,0 0.42,-0.071 0.589,-0.212 0.168,-0.141 0.249,-0.303 0.243,-0.485 l -0.004,-0.012 h -0.346 c 0,0.115 -0.048,0.211 -0.145,0.29 -0.097,0.079 -0.21,0.118 -0.337,0.118 z m 1.771,-2.363 h -0.384 v 0.51 h -0.336 v 0.285 h 0.336 v 1.283 c 0,0.202 0.046,0.35 0.138,0.444 0.093,0.095 0.217,0.142 0.373,0.142 0.056,0 0.112,-0.007 0.167,-0.022 0.056,-0.015 0.098,-0.035 0.126,-0.058 l -0.051,-0.264 c -0.02,0.008 -0.044,0.015 -0.071,0.02 -0.027,0.005 -0.051,0.008 -0.073,0.008 -0.068,0 -0.122,-0.021 -0.163,-0.061 -0.041,-0.04 -0.062,-0.11 -0.062,-0.209 v -1.283 h 0.401 v -0.285 h -0.401 z m 1.291,2.623 v -2.113 h -0.384 V 206 Z m 0,-2.654 v -0.393 h -0.384 v 0.393 z m 0.502,1.578 v 0.043 c 0,0.314 0.085,0.571 0.255,0.772 0.17,0.201 0.401,0.302 0.693,0.302 0.291,0 0.522,-0.1 0.691,-0.301 0.169,-0.2 0.254,-0.458 0.254,-0.773 v -0.043 c 0,-0.314 -0.085,-0.572 -0.255,-0.774 -0.17,-0.201 -0.401,-0.302 -0.694,-0.302 -0.291,0 -0.521,0.101 -0.69,0.303 -0.169,0.203 -0.254,0.46 -0.254,0.773 z m 0.385,0.043 v -0.043 c 0,-0.222 0.047,-0.406 0.142,-0.553 0.094,-0.147 0.233,-0.221 0.417,-0.221 0.185,0 0.325,0.074 0.421,0.221 0.095,0.147 0.143,0.331 0.143,0.553 v 0.043 c 0,0.224 -0.047,0.409 -0.142,0.554 -0.096,0.146 -0.235,0.219 -0.418,0.219 -0.187,0 -0.327,-0.073 -0.421,-0.219 -0.095,-0.145 -0.142,-0.33 -0.142,-0.554 z m 2.322,-1.08 h -0.343 V 206 h 0.384 v -1.541 c 0.051,-0.092 0.119,-0.165 0.204,-0.219 0.086,-0.053 0.184,-0.08 0.294,-0.08 0.151,0 0.264,0.039 0.337,0.117 0.074,0.078 0.111,0.211 0.111,0.397 V 206 h 0.384 v -1.334 c 0,-0.279 -0.062,-0.485 -0.187,-0.618 -0.125,-0.134 -0.302,-0.2 -0.529,-0.2 -0.136,0 -0.257,0.031 -0.363,0.092 -0.106,0.062 -0.194,0.149 -0.264,0.261 z m 3.229,2.113 h 0.396 c -0.021,-0.068 -0.035,-0.137 -0.043,-0.207 -0.007,-0.07 -0.011,-0.143 -0.011,-0.219 v -1.017 c 0,-0.23 -0.073,-0.405 -0.219,-0.527 -0.146,-0.121 -0.339,-0.182 -0.578,-0.182 -0.242,0 -0.44,0.063 -0.593,0.191 -0.153,0.128 -0.226,0.268 -0.218,0.422 l 0.004,0.012 h 0.367 c 0,-0.089 0.039,-0.165 0.116,-0.228 0.078,-0.063 0.179,-0.095 0.302,-0.095 0.138,0 0.245,0.037 0.321,0.109 0.075,0.072 0.113,0.17 0.113,0.294 v 0.209 h -0.418 c -0.28,0 -0.502,0.057 -0.665,0.171 -0.164,0.114 -0.245,0.271 -0.245,0.473 0,0.198 0.057,0.353 0.173,0.466 0.115,0.113 0.282,0.169 0.503,0.169 0.132,0 0.256,-0.034 0.372,-0.103 0.115,-0.068 0.208,-0.153 0.28,-0.254 0.001,0.049 0.005,0.098 0.013,0.147 0.007,0.049 0.017,0.105 0.03,0.169 z m -0.639,-0.281 c -0.114,0 -0.201,-0.028 -0.26,-0.082 -0.058,-0.055 -0.088,-0.129 -0.088,-0.223 0,-0.105 0.047,-0.197 0.14,-0.275 0.093,-0.078 0.217,-0.118 0.372,-0.118 h 0.432 v 0.344 c -0.034,0.093 -0.107,0.175 -0.219,0.246 -0.112,0.072 -0.238,0.108 -0.377,0.108 z m 2.539,-1.492 0.053,-0.358 c -0.017,-0.005 -0.038,-0.01 -0.065,-0.015 -0.026,-0.004 -0.053,-0.006 -0.082,-0.006 -0.114,0 -0.215,0.03 -0.303,0.091 -0.088,0.062 -0.162,0.147 -0.222,0.256 l -0.037,-0.308 h -0.344 V 206 h 0.385 v -1.51 c 0.038,-0.087 0.091,-0.155 0.161,-0.203 0.07,-0.048 0.155,-0.072 0.257,-0.072 z m 1.053,0.99 -0.445,-1.33 h -0.43 l 0.785,2.07 -0.092,0.221 c -0.035,0.088 -0.078,0.169 -0.131,0.242 -0.052,0.073 -0.119,0.109 -0.201,0.109 -0.014,0 -0.048,-0.002 -0.102,-0.006 -0.054,-0.003 -0.077,-0.005 -0.07,-0.003 l -0.039,0.302 c 0.026,0.007 0.063,0.014 0.112,0.021 0.048,0.007 0.088,0.011 0.119,0.011 0.169,0 0.304,-0.053 0.403,-0.159 0.1,-0.105 0.176,-0.229 0.23,-0.371 l 0.888,-2.437 h -0.427 l -0.52,1.595 h -0.012 z m 1.463,0.783 v -0.395 h -0.385 V 206 Z m 0,-1.711 v -0.394 h -0.385 v 0.394 z m 3.197,0.979 0.266,0.732 h 0.392 l -1.082,-2.844 h -0.33 L 144.643,206 h 0.392 l 0.27,-0.732 z m -1.072,-0.323 0.476,-1.295 h 0.012 l 0.469,1.295 z m 3.049,-0.718 0.052,-0.358 c -0.017,-0.005 -0.038,-0.01 -0.064,-0.015 -0.026,-0.004 -0.053,-0.006 -0.082,-0.006 -0.115,0 -0.216,0.03 -0.304,0.091 -0.088,0.062 -0.162,0.147 -0.221,0.256 l -0.038,-0.308 h -0.343 V 206 h 0.384 v -1.51 c 0.038,-0.087 0.092,-0.155 0.162,-0.203 0.069,-0.048 0.155,-0.072 0.256,-0.072 z m 1.713,1.461 0.025,0.312 h 0.346 v -2.113 h -0.385 v 1.523 c -0.046,0.102 -0.113,0.18 -0.202,0.236 -0.089,0.055 -0.202,0.083 -0.339,0.083 -0.141,0 -0.244,-0.043 -0.311,-0.127 -0.066,-0.085 -0.099,-0.24 -0.099,-0.465 v -1.25 h -0.385 v 1.246 c 0,0.311 0.064,0.54 0.193,0.687 0.129,0.147 0.309,0.221 0.539,0.221 0.137,0 0.258,-0.031 0.362,-0.092 0.104,-0.061 0.189,-0.148 0.256,-0.261 z m 3.013,-0.598 h -0.369 c 0,0.203 -0.059,0.362 -0.176,0.477 -0.117,0.116 -0.282,0.173 -0.496,0.173 -0.215,0 -0.386,-0.086 -0.513,-0.26 -0.128,-0.173 -0.192,-0.389 -0.192,-0.648 v -0.51 c 0,-0.256 0.064,-0.471 0.192,-0.644 0.127,-0.173 0.298,-0.26 0.513,-0.26 0.214,0 0.379,0.058 0.496,0.174 0.117,0.116 0.176,0.273 0.176,0.472 h 0.369 l 0.004,-0.011 c 0.005,-0.283 -0.087,-0.51 -0.277,-0.681 -0.19,-0.171 -0.446,-0.257 -0.768,-0.257 -0.321,0 -0.583,0.114 -0.786,0.343 -0.202,0.229 -0.304,0.518 -0.304,0.868 v 0.506 c 0,0.35 0.102,0.639 0.304,0.867 0.203,0.228 0.465,0.342 0.786,0.342 0.317,0 0.571,-0.09 0.764,-0.27 0.193,-0.179 0.286,-0.403 0.281,-0.669 z m 0.362,-0.166 v 0.043 c 0,0.314 0.085,0.571 0.254,0.772 0.17,0.201 0.401,0.302 0.693,0.302 0.291,0 0.522,-0.1 0.691,-0.301 0.169,-0.2 0.254,-0.458 0.254,-0.773 v -0.043 c 0,-0.314 -0.085,-0.572 -0.255,-0.774 -0.17,-0.201 -0.401,-0.302 -0.694,-0.302 -0.29,0 -0.52,0.101 -0.69,0.303 -0.169,0.203 -0.253,0.46 -0.253,0.773 z m 0.384,0.043 v -0.043 c 0,-0.222 0.048,-0.406 0.142,-0.553 0.094,-0.147 0.233,-0.221 0.417,-0.221 0.185,0 0.325,0.074 0.421,0.221 0.096,0.147 0.143,0.331 0.143,0.553 v 0.043 c 0,0.224 -0.047,0.409 -0.142,0.554 -0.095,0.146 -0.235,0.219 -0.418,0.219 -0.186,0 -0.327,-0.073 -0.421,-0.219 -0.094,-0.145 -0.142,-0.33 -0.142,-0.554 z M 156.99,206 h 0.873 c 0.373,0 0.672,-0.114 0.897,-0.341 0.225,-0.227 0.338,-0.522 0.338,-0.886 v -0.388 c 0,-0.362 -0.113,-0.657 -0.338,-0.886 -0.225,-0.228 -0.524,-0.343 -0.897,-0.343 h -0.873 z m 0.385,-2.541 h 0.488 c 0.263,0 0.471,0.087 0.622,0.26 0.152,0.173 0.228,0.394 0.228,0.662 v 0.392 c 0,0.271 -0.076,0.493 -0.228,0.666 -0.151,0.174 -0.359,0.26 -0.622,0.26 h -0.488 z m 2.656,2.541 v -2.844 h -0.386 V 206 Z m 2.735,-0.91 h -0.37 c 0,0.203 -0.058,0.362 -0.175,0.477 -0.117,0.116 -0.283,0.173 -0.496,0.173 -0.215,0 -0.386,-0.086 -0.514,-0.26 -0.128,-0.173 -0.191,-0.389 -0.191,-0.648 v -0.51 c 0,-0.256 0.063,-0.471 0.191,-0.644 0.128,-0.173 0.299,-0.26 0.514,-0.26 0.213,0 0.379,0.058 0.496,0.174 0.117,0.116 0.175,0.273 0.175,0.472 h 0.37 l 0.004,-0.011 c 0.005,-0.283 -0.088,-0.51 -0.278,-0.681 -0.19,-0.171 -0.446,-0.257 -0.767,-0.257 -0.322,0 -0.584,0.114 -0.787,0.343 -0.202,0.229 -0.303,0.518 -0.303,0.868 v 0.506 c 0,0.35 0.101,0.639 0.303,0.867 0.203,0.228 0.465,0.342 0.787,0.342 0.316,0 0.571,-0.09 0.763,-0.27 0.193,-0.179 0.287,-0.403 0.282,-0.669 z m 2.392,-1.631 v -0.303 h -2.211 v 0.303 h 0.912 V 206 h 0.385 v -2.541 z m 1.877,2.842 V 206 h -1.803 v 0.301 z m 1.326,-3.186 c -0.3,0 -0.552,0.114 -0.756,0.34 -0.203,0.227 -0.304,0.522 -0.304,0.887 v 0.543 c 0,0.367 0.091,0.651 0.273,0.853 0.183,0.202 0.413,0.303 0.692,0.303 0.268,0 0.482,-0.093 0.643,-0.278 0.161,-0.186 0.241,-0.426 0.241,-0.72 0,-0.27 -0.075,-0.492 -0.226,-0.668 -0.151,-0.176 -0.354,-0.264 -0.608,-0.264 -0.123,0 -0.239,0.021 -0.346,0.062 -0.108,0.041 -0.203,0.098 -0.286,0.171 v -0.045 c 0,-0.262 0.062,-0.474 0.186,-0.637 0.124,-0.163 0.288,-0.244 0.491,-0.244 0.094,0 0.176,0.01 0.245,0.03 0.07,0.02 0.137,0.047 0.201,0.079 l 0.082,-0.295 c -0.063,-0.033 -0.142,-0.061 -0.238,-0.084 -0.095,-0.022 -0.192,-0.033 -0.29,-0.033 z m -0.131,1.283 c 0.168,0 0.3,0.061 0.394,0.182 0.094,0.121 0.142,0.275 0.142,0.463 0,0.198 -0.044,0.364 -0.132,0.497 -0.088,0.134 -0.211,0.2 -0.368,0.2 -0.167,0 -0.306,-0.071 -0.416,-0.213 -0.111,-0.142 -0.166,-0.343 -0.166,-0.605 v -0.231 c 0.048,-0.088 0.118,-0.159 0.211,-0.212 0.092,-0.054 0.204,-0.081 0.335,-0.081 z m 2.334,-0.132 -0.66,-1.11 h -0.461 l 0.903,1.41 -0.922,1.434 h 0.465 l 0.683,-1.129 0.682,1.129 h 0.459 l -0.922,-1.434 0.902,-1.41 h -0.464 z m 2.579,-1.151 c -0.301,0 -0.553,0.114 -0.756,0.34 -0.203,0.227 -0.305,0.522 -0.305,0.887 v 0.543 c 0,0.367 0.091,0.651 0.273,0.853 0.183,0.202 0.413,0.303 0.692,0.303 0.268,0 0.483,-0.093 0.643,-0.278 0.161,-0.186 0.242,-0.426 0.242,-0.72 0,-0.27 -0.076,-0.492 -0.227,-0.668 -0.151,-0.176 -0.353,-0.264 -0.607,-0.264 -0.124,0 -0.24,0.021 -0.347,0.062 -0.107,0.041 -0.203,0.098 -0.286,0.171 v -0.045 c 0,-0.262 0.062,-0.474 0.186,-0.637 0.125,-0.163 0.288,-0.244 0.492,-0.244 0.093,0 0.175,0.01 0.245,0.03 0.069,0.02 0.136,0.047 0.2,0.079 l 0.082,-0.295 c -0.063,-0.033 -0.142,-0.061 -0.237,-0.084 -0.096,-0.022 -0.193,-0.033 -0.29,-0.033 z m -0.131,1.283 c 0.168,0 0.299,0.061 0.393,0.182 0.095,0.121 0.142,0.275 0.142,0.463 0,0.198 -0.044,0.364 -0.132,0.497 -0.088,0.134 -0.211,0.2 -0.368,0.2 -0.167,0 -0.305,-0.071 -0.416,-0.213 -0.111,-0.142 -0.166,-0.343 -0.166,-0.605 v -0.231 c 0.048,-0.088 0.118,-0.159 0.211,-0.212 0.092,-0.054 0.204,-0.081 0.336,-0.081 z m 1.763,1.602 v -0.395 h -0.384 V 206 Z"
           style="fill:#000000;fill-opacity:1;fill-rule:nonzero;stroke:none"
           id="path568" /></g></g></g></svg>
