<?xml version="1.0" encoding="UTF-8" standalone="no"?>
<!-- Created with Inkscape (http://www.inkscape.org/) -->

<svg
   width="297mm"
   height="210mm"
   viewBox="0 0 297 210"
   version="1.1"
   id="svg3058"
   inkscape:version="1.1.2 (0a00cf5339, 2022-02-04)"
   sodipodi:docname="dot_pattern.svg"
   xmlns:inkscape="http://www.inkscape.org/namespaces/inkscape"
   xmlns:sodipodi="http://sodipodi.sourceforge.net/DTD/sodipodi-0.dtd"
   xmlns="http://www.w3.org/2000/svg"
   xmlns:svg="http://www.w3.org/2000/svg">
  <sodipodi:namedview
     id="namedview3060"
     pagecolor="#ffffff"
     bordercolor="#666666"
     borderopacity="1.0"
     inkscape:pageshadow="2"
     inkscape:pageopacity="0.0"
     inkscape:pagecheckerboard="0"
     inkscape:document-units="mm"
     showgrid="false"
     inkscape:zoom="0.39065957"
     inkscape:cx="1836.6375"
     inkscape:cy="517.07425"
     inkscape:window-width="2560"
     inkscape:window-height="1403"
     inkscape:window-x="2560"
     inkscape:window-y="0"
     inkscape:window-maximized="1"
     inkscape:current-layer="layer1" />
  <defs
     id="defs3055" />
  <g
     inkscape:label="Layer 1"
     inkscape:groupmode="layer"
     id="layer1">
    <circle
       style="fill:#000000;fill-opacity:1;stroke:none;stroke-width:0.484418;stroke-miterlimit:4.4;stroke-dasharray:none"
       id="path3187"
       cx="148.5"
       cy="105"
       r="15" />
    <g
       id="g4197"
       transform="translate(8.5,10)">
      <g
         style="shape-rendering:crispEdges"
         id="g3787"
         transform="scale(3.75)">
        <rect
           x="0"
           y="0"
           width="8"
           height="8"
           fill="#000000"
           id="rect3697" />
        <rect
           width="1.5"
           height="1"
           x="1"
           y="1"
           fill="#ffffff"
           id="rect3699" />
        <rect
           width="1"
           height="1.5"
           x="1"
           y="1"
           fill="#ffffff"
           id="rect3701" />
        <rect
           width="1.5"
           height="1"
           x="2"
           y="1"
           fill="#ffffff"
           id="rect3703" />
        <rect
           width="1.5"
           height="1"
           x="3"
           y="1"
           fill="#ffffff"
           id="rect3705" />
        <rect
           width="1.5"
           height="1"
           x="4"
           y="1"
           fill="#ffffff"
           id="rect3707" />
        <rect
           width="1"
           height="1"
           x="5"
           y="1"
           fill="#ffffff"
           id="rect3709" />
        <rect
           width="1"
           height="1.5"
           x="5"
           y="1"
           fill="#ffffff"
           id="rect3711" />
        <rect
           width="1"
           height="1"
           x="1"
           y="2"
           fill="#ffffff"
           id="rect3713" />
        <rect
           width="1.5"
           height="1"
           x="5"
           y="2"
           fill="#ffffff"
           id="rect3715" />
        <rect
           width="1"
           height="1"
           x="6"
           y="2"
           fill="#ffffff"
           id="rect3717" />
        <rect
           width="1"
           height="1.5"
           x="6"
           y="2"
           fill="#ffffff"
           id="rect3719" />
        <rect
           width="1.5"
           height="1"
           x="2"
           y="3"
           fill="#ffffff"
           id="rect3721" />
        <rect
           width="1"
           height="1"
           x="3"
           y="3"
           fill="#ffffff"
           id="rect3723" />
        <rect
           width="1"
           height="1"
           x="6"
           y="3"
           fill="#ffffff"
           id="rect3725" />
        <rect
           width="1"
           height="1.5"
           x="6"
           y="3"
           fill="#ffffff"
           id="rect3727" />
        <rect
           width="1"
           height="1"
           x="1"
           y="4"
           fill="#ffffff"
           id="rect3729" />
        <rect
           width="1"
           height="1"
           x="4"
           y="4"
           fill="#ffffff"
           id="rect3731" />
        <rect
           width="1"
           height="1"
           x="6"
           y="4"
           fill="#ffffff"
           id="rect3733" />
        <rect
           width="1"
           height="1"
           x="3"
           y="5"
           fill="#ffffff"
           id="rect3735" />
        <rect
           width="1"
           height="1.5"
           x="3"
           y="5"
           fill="#ffffff"
           id="rect3737" />
        <rect
           width="1"
           height="1"
           x="5"
           y="5"
           fill="#ffffff"
           id="rect3739" />
        <rect
           width="1"
           height="1.5"
           x="5"
           y="5"
           fill="#ffffff"
           id="rect3741" />
        <rect
           width="1"
           height="1"
           x="1"
           y="6"
           fill="#ffffff"
           id="rect3743" />
        <rect
           width="1.5"
           height="1"
           x="3"
           y="6"
           fill="#ffffff"
           id="rect3745" />
        <rect
           width="1.5"
           height="1"
           x="4"
           y="6"
           fill="#ffffff"
           id="rect3747" />
        <rect
           width="1.5"
           height="1"
           x="5"
           y="6"
           fill="#ffffff"
           id="rect3749" />
        <rect
           width="1"
           height="1"
           x="6"
           y="6"
           fill="#ffffff"
           id="rect3751" />
      </g>
      <g
         style="shape-rendering:crispEdges"
         id="g3918"
         transform="matrix(3.75,0,0,3.75,250,0)">
        <rect
           x="0"
           y="0"
           width="8"
           height="8"
           fill="#000000"
           id="rect3789" />
        <rect
           width="1"
           height="1"
           x="6"
           y="1"
           fill="#ffffff"
           id="rect3791" />
        <rect
           width="1"
           height="1.5"
           x="6"
           y="1"
           fill="#ffffff"
           id="rect3793" />
        <rect
           width="1"
           height="1"
           x="1"
           y="2"
           fill="#ffffff"
           id="rect3795" />
        <rect
           width="1"
           height="1.5"
           x="1"
           y="2"
           fill="#ffffff"
           id="rect3797" />
        <rect
           width="1"
           height="1"
           x="4"
           y="2"
           fill="#ffffff"
           id="rect3799" />
        <rect
           width="1"
           height="1.5"
           x="4"
           y="2"
           fill="#ffffff"
           id="rect3801" />
        <rect
           width="1"
           height="1"
           x="6"
           y="2"
           fill="#ffffff"
           id="rect3803" />
        <rect
           width="1"
           height="1.5"
           x="6"
           y="2"
           fill="#ffffff"
           id="rect3805" />
        <rect
           width="1"
           height="1"
           x="1"
           y="3"
           fill="#ffffff"
           id="rect3807" />
        <rect
           width="1"
           height="1.5"
           x="1"
           y="3"
           fill="#ffffff"
           id="rect3809" />
        <rect
           width="1.5"
           height="1"
           x="3"
           y="3"
           fill="#ffffff"
           id="rect3811" />
        <rect
           width="1"
           height="1.5"
           x="3"
           y="3"
           fill="#ffffff"
           id="rect3813" />
        <rect
           width="1.5"
           height="1"
           x="4"
           y="3"
           fill="#ffffff"
           id="rect3815" />
        <rect
           width="1"
           height="1.5"
           x="4"
           y="3"
           fill="#ffffff"
           id="rect3817" />
        <rect
           width="1.5"
           height="1"
           x="5"
           y="3"
           fill="#ffffff"
           id="rect3819" />
        <rect
           width="1"
           height="1.5"
           x="5"
           y="3"
           fill="#ffffff"
           id="rect3821" />
        <rect
           width="1"
           height="1"
           x="6"
           y="3"
           fill="#ffffff"
           id="rect3823" />
        <rect
           width="1"
           height="1.5"
           x="6"
           y="3"
           fill="#ffffff"
           id="rect3825" />
        <rect
           width="1.5"
           height="1"
           x="1"
           y="4"
           fill="#ffffff"
           id="rect3827" />
        <rect
           width="1.5"
           height="1"
           x="2"
           y="4"
           fill="#ffffff"
           id="rect3829" />
        <rect
           width="1"
           height="1.5"
           x="2"
           y="4"
           fill="#ffffff"
           id="rect3831" />
        <rect
           width="1.5"
           height="1"
           x="3"
           y="4"
           fill="#ffffff"
           id="rect3833" />
        <rect
           width="1"
           height="1.5"
           x="3"
           y="4"
           fill="#ffffff"
           id="rect3835" />
        <rect
           width="1.5"
           height="1"
           x="4"
           y="4"
           fill="#ffffff"
           id="rect3837" />
        <rect
           width="1"
           height="1.5"
           x="4"
           y="4"
           fill="#ffffff"
           id="rect3839" />
        <rect
           width="1.5"
           height="1"
           x="5"
           y="4"
           fill="#ffffff"
           id="rect3841" />
        <rect
           width="1"
           height="1.5"
           x="5"
           y="4"
           fill="#ffffff"
           id="rect3843" />
        <rect
           width="1"
           height="1"
           x="6"
           y="4"
           fill="#ffffff"
           id="rect3845" />
        <rect
           width="1.5"
           height="1"
           x="2"
           y="5"
           fill="#ffffff"
           id="rect3847" />
        <rect
           width="1"
           height="1.5"
           x="2"
           y="5"
           fill="#ffffff"
           id="rect3849" />
        <rect
           width="1.5"
           height="1"
           x="3"
           y="5"
           fill="#ffffff"
           id="rect3851" />
        <rect
           width="1"
           height="1.5"
           x="3"
           y="5"
           fill="#ffffff"
           id="rect3853" />
        <rect
           width="1.5"
           height="1"
           x="4"
           y="5"
           fill="#ffffff"
           id="rect3855" />
        <rect
           width="1"
           height="1.5"
           x="4"
           y="5"
           fill="#ffffff"
           id="rect3857" />
        <rect
           width="1"
           height="1"
           x="5"
           y="5"
           fill="#ffffff"
           id="rect3859" />
        <rect
           width="1.5"
           height="1"
           x="1"
           y="6"
           fill="#ffffff"
           id="rect3861" />
        <rect
           width="1.5"
           height="1"
           x="2"
           y="6"
           fill="#ffffff"
           id="rect3863" />
        <rect
           width="1.5"
           height="1"
           x="3"
           y="6"
           fill="#ffffff"
           id="rect3865" />
        <rect
           width="1"
           height="1"
           x="4"
           y="6"
           fill="#ffffff"
           id="rect3867" />
        <rect
           width="1"
           height="1"
           x="6"
           y="6"
           fill="#ffffff"
           id="rect3869" />
      </g>
      <g
         style="shape-rendering:crispEdges"
         id="g3998"
         transform="matrix(3.75,0,0,3.75,0,160)">
        <rect
           x="0"
           y="0"
           width="8"
           height="8"
           fill="#000000"
           id="rect3920" />
        <rect
           width="1"
           height="1"
           x="6"
           y="1"
           fill="#ffffff"
           id="rect3922" />
        <rect
           width="1"
           height="1"
           x="2"
           y="2"
           fill="#ffffff"
           id="rect3924" />
        <rect
           width="1"
           height="1"
           x="4"
           y="2"
           fill="#ffffff"
           id="rect3926" />
        <rect
           width="1"
           height="1.5"
           x="4"
           y="2"
           fill="#ffffff"
           id="rect3928" />
        <rect
           width="1.5"
           height="1"
           x="4"
           y="3"
           fill="#ffffff"
           id="rect3930" />
        <rect
           width="1"
           height="1.5"
           x="4"
           y="3"
           fill="#ffffff"
           id="rect3932" />
        <rect
           width="1.5"
           height="1"
           x="5"
           y="3"
           fill="#ffffff"
           id="rect3934" />
        <rect
           width="1"
           height="1.5"
           x="5"
           y="3"
           fill="#ffffff"
           id="rect3936" />
        <rect
           width="1"
           height="1"
           x="6"
           y="3"
           fill="#ffffff"
           id="rect3938" />
        <rect
           width="1"
           height="1.5"
           x="6"
           y="3"
           fill="#ffffff"
           id="rect3940" />
        <rect
           width="1"
           height="1"
           x="2"
           y="4"
           fill="#ffffff"
           id="rect3942" />
        <rect
           width="1.5"
           height="1"
           x="4"
           y="4"
           fill="#ffffff"
           id="rect3944" />
        <rect
           width="1.5"
           height="1"
           x="5"
           y="4"
           fill="#ffffff"
           id="rect3946" />
        <rect
           width="1"
           height="1.5"
           x="5"
           y="4"
           fill="#ffffff"
           id="rect3948" />
        <rect
           width="1"
           height="1"
           x="6"
           y="4"
           fill="#ffffff"
           id="rect3950" />
        <rect
           width="1"
           height="1.5"
           x="6"
           y="4"
           fill="#ffffff"
           id="rect3952" />
        <rect
           width="1"
           height="1"
           x="3"
           y="5"
           fill="#ffffff"
           id="rect3954" />
        <rect
           width="1.5"
           height="1"
           x="5"
           y="5"
           fill="#ffffff"
           id="rect3956" />
        <rect
           width="1"
           height="1.5"
           x="5"
           y="5"
           fill="#ffffff"
           id="rect3958" />
        <rect
           width="1"
           height="1"
           x="6"
           y="5"
           fill="#ffffff"
           id="rect3960" />
        <rect
           width="1"
           height="1"
           x="2"
           y="6"
           fill="#ffffff"
           id="rect3962" />
        <rect
           width="1.5"
           height="1"
           x="4"
           y="6"
           fill="#ffffff"
           id="rect3964" />
        <rect
           width="1"
           height="1"
           x="5"
           y="6"
           fill="#ffffff"
           id="rect3966" />
      </g>
      <g
         style="shape-rendering:crispEdges"
         id="g4075"
         transform="matrix(3.75,0,0,3.75,250,160)">
        <rect
           x="0"
           y="0"
           width="8"
           height="8"
           fill="#000000"
           id="rect4000" />
        <rect
           width="1.5"
           height="1"
           x="5"
           y="1"
           fill="#ffffff"
           id="rect4002" />
        <rect
           width="1"
           height="1.5"
           x="5"
           y="1"
           fill="#ffffff"
           id="rect4004" />
        <rect
           width="1"
           height="1"
           x="6"
           y="1"
           fill="#ffffff"
           id="rect4006" />
        <rect
           width="1"
           height="1.5"
           x="6"
           y="1"
           fill="#ffffff"
           id="rect4008" />
        <rect
           width="1.5"
           height="1"
           x="3"
           y="2"
           fill="#ffffff"
           id="rect4010" />
        <rect
           width="1"
           height="1.5"
           x="3"
           y="2"
           fill="#ffffff"
           id="rect4012" />
        <rect
           width="1.5"
           height="1"
           x="4"
           y="2"
           fill="#ffffff"
           id="rect4014" />
        <rect
           width="1"
           height="1.5"
           x="4"
           y="2"
           fill="#ffffff"
           id="rect4016" />
        <rect
           width="1.5"
           height="1"
           x="5"
           y="2"
           fill="#ffffff"
           id="rect4018" />
        <rect
           width="1"
           height="1"
           x="6"
           y="2"
           fill="#ffffff"
           id="rect4020" />
        <rect
           width="1.5"
           height="1"
           x="2"
           y="3"
           fill="#ffffff"
           id="rect4022" />
        <rect
           width="1.5"
           height="1"
           x="3"
           y="3"
           fill="#ffffff"
           id="rect4024" />
        <rect
           width="1"
           height="1"
           x="4"
           y="3"
           fill="#ffffff"
           id="rect4026" />
        <rect
           width="1"
           height="1.5"
           x="4"
           y="3"
           fill="#ffffff"
           id="rect4028" />
        <rect
           width="1"
           height="1"
           x="1"
           y="4"
           fill="#ffffff"
           id="rect4030" />
        <rect
           width="1"
           height="1"
           x="4"
           y="4"
           fill="#ffffff"
           id="rect4032" />
        <rect
           width="1.5"
           height="1"
           x="2"
           y="5"
           fill="#ffffff"
           id="rect4034" />
        <rect
           width="1"
           height="1"
           x="3"
           y="5"
           fill="#ffffff"
           id="rect4036" />
        <rect
           width="1"
           height="1"
           x="5"
           y="5"
           fill="#ffffff"
           id="rect4038" />
        <rect
           width="1"
           height="1.5"
           x="5"
           y="5"
           fill="#ffffff"
           id="rect4040" />
        <rect
           width="1"
           height="1"
           x="1"
           y="6"
           fill="#ffffff"
           id="rect4042" />
        <rect
           width="1"
           height="1"
           x="5"
           y="6"
           fill="#ffffff"
           id="rect4044" />
      </g>
    </g>
    <g
       style="clip-rule:evenodd;fill-rule:evenodd;stroke-linecap:round;stroke-miterlimit:1.5"
       id="g1101"
       transform="matrix(0.00806348,0,0,0.00806348,138.49919,187.82358)">
      <g
         transform="translate(-59,-6325)"
         id="g1042">
        <g
   id="logo17_light"
   transform="translate(-3153.56,2877.02)">
            <rect
   x="3212.6599"
   y="3448.03"
   width="2480.3201"
   height="2480.3201"
   style="fill:none"
   id="rect943" />

            <g
   id="g1039">
                <g
   transform="translate(3224.4,-2885.74)"
   id="g947">
                    <path
   d="m 2409.48,6629.09 c 0,-130.37 -105.84,-236.21 -236.21,-236.21 H 283.58 c -130.368,0 -236.211,105.84 -236.211,236.21 v 1889.68 c 0,130.37 105.843,236.21 236.211,236.21 h 1889.69 c 130.37,0 236.21,-105.84 236.21,-236.21 z"
   style="fill:#063d79;stroke:#063d79;stroke-width:25px"
   id="path945" />

                </g>

                <g
   transform="translate(3213.44,-2876.7)"
   id="g951">
                    <rect
   x="278.604"
   y="8527.54"
   width="1921.5601"
   height="102.524"
   style="fill:#ffffff"
   id="rect949" />

                </g>

                <g
   transform="translate(3212.67,-2877.02)"
   id="g955">
                    <path
   d="m 670.702,6878.34 63.796,35.12 34.953,-175.27 v 0 c -0.599,-4.46 -0.908,-9 -0.908,-13.61 0,-55.9 45.38,-101.27 101.274,-101.27 l 974.413,-9 v 0 c 33.15,-39.59 82.93,-64.79 138.55,-64.79 99.68,0 180.61,80.93 180.61,180.61 0,53.9 -23.66,102.31 -61.16,135.42 v 0 l -339.58,1388.09 c -1.47,8.22 -3.45,16.28 -5.9,24.11 v 0 c -25.1,80.18 -100.01,138.43 -188.42,138.43 -108.95,0 -197.39,-88.45 -197.39,-197.39 0,-17.36 2.24,-34.19 6.45,-50.22 v 0 c 2.03,-7.73 4.52,-15.27 7.43,-22.6 l 426.73,-1297.83 -889.996,-21.06 -133.583,115.83 73.77,40.62 -63.004,114.42 c -0.071,-3.26 -0.145,-6.49 -0.221,-9.67 -1.391,-57.43 -32.459,-107.26 -77.864,-123.25 -30.557,-10.76 -68.378,-7.1 -109.217,21.58 l -0.574,0.41 -3.605,6.54 z"
   style="fill:#ffffff"
   id="path953" />

                </g>

                <g
   transform="translate(3212.67,-2877.02)"
   id="g959">
                    <path
   d="m 663.614,8068.92 -7.852,-24.13 c -9.204,3.03 -18.169,6.74 -26.817,11.1 l 30.894,60.8 c -8.066,4.07 -15.607,8.99 -22.504,14.65 L 534.16,8008.11 c -11.11,8.98 -21.505,18.78 -31.093,29.32 l 121.135,106.43 c -6.907,7.65 -12.842,16.18 -17.621,25.4 l -61.535,-30.55 c -4.425,8.54 -8.186,17.39 -11.252,26.48 l 65.645,20.88 c -2.735,8.11 -4.567,16.42 -5.496,24.81 L 432.62,8195.39 c -1.389,14.07 -1.68,28.23 -0.871,42.35 l 161.589,-8.82 c 0.457,10.51 2.328,20.95 5.615,31.06 l -65.923,21.64 c 2.946,9.06 6.591,17.87 10.904,26.35 l 61.942,-31.27 c 3.887,7.65 8.586,14.81 13.988,21.36 l -124.227,100.4 c 9.147,10.93 19.129,21.15 29.861,30.58 l 107.133,-117.76 c 7.737,6.85 16.406,12.71 25.816,17.38 l -31.696,61.16 c 8.592,4.26 17.509,7.87 26.674,10.78 l 21.954,-65.09 c 8.633,2.74 17.514,4.49 26.473,5.24 l -15.556,157.63 c 14.324,1.37 28.734,1.67 43.102,0.88 l -9.071,-158.36 c 10.093,-0.69 20.137,-2.63 29.884,-5.83 l 21.1,64.85 c 9.204,-3.02 18.169,-6.73 26.817,-11.1 l -30.894,-60.8 c 8.066,-4.07 15.607,-8.99 22.504,-14.65 l 103.175,123.23 c 11.11,-8.98 21.505,-18.78 31.093,-29.32 L 802.871,8300.85 c 6.907,-7.65 12.842,-16.17 17.621,-25.4 l 61.535,30.55 c 4.425,-8.53 8.186,-17.39 11.252,-26.48 l -65.645,-20.87 c 2.735,-8.11 4.567,-16.43 5.496,-24.81 l 161.323,15.48 c 1.389,-14.07 1.68,-28.23 0.871,-42.35 l -161.589,8.82 c -0.457,-10.51 -2.328,-20.95 -5.615,-31.05 l 65.923,-21.65 c -2.946,-9.05 -6.591,-17.86 -10.904,-26.35 l -61.942,31.27 c -3.887,-7.65 -8.586,-14.81 -13.988,-21.36 l 124.227,-100.4 c -9.147,-10.93 -19.129,-21.15 -29.861,-30.58 l -107.133,117.76 c -7.737,-6.85 -16.406,-12.7 -25.816,-17.38 l 31.696,-61.16 c -8.592,-4.26 -17.509,-7.87 -26.674,-10.78 l -4.777,14.16 c 6.147,-248.99 16.762,-740.4 11.214,-969.54 -1.985,-82.01 -71.403,-147.9 -158.053,-87.03 -97.262,68.32 -98.122,67.31 -327.583,262.7 -81.106,69.07 25.98,165.55 99.084,119.18 0,0 253.407,-228.35 253.535,-220.77 3.845,227.27 12.223,676.13 16.546,906.11 z"
   style="fill:#ffffff"
   id="path957" />

                </g>

                <g
   id="g985">
                    <g
   transform="matrix(1.10116,0,0,1.10116,3019.64,-3539.58)"
   id="g963">
                        <circle
   cx="1978.09"
   cy="6721.1099"
   r="171.59599"
   style="fill:none;stroke:#063d79;stroke-width:37.84px"
   id="circle961" />

                    </g>

                    <g
   transform="matrix(0.653794,0,0,0.653794,3904.57,-532.774)"
   id="g967">
                        <circle
   cx="1978.09"
   cy="6721.1099"
   r="171.59599"
   style="fill:none;stroke:#063d79;stroke-width:50.98px"
   id="circle965" />

                    </g>

                    <g
   transform="translate(3212.67,-2877.02)"
   id="g971">
                        <path
   d="m 1702.1,6738.47 h 472.02"
   style="fill:none;stroke:#063d79;stroke-width:33.33px;stroke-linecap:butt"
   id="path969" />

                    </g>

                    <g
   transform="rotate(-90,2152.99,3693.63)"
   id="g975">
                        <path
   d="m 1702.1,6738.47 h 472.02"
   style="fill:none;stroke:#063d79;stroke-width:33.33px;stroke-linecap:butt"
   id="path973" />

                    </g>

                    <g
   transform="translate(3212.67,-2877.02)"
   id="g979">
                        <path
   d="m 1867.51,6743.51 c 0,66.75 54.11,120.86 120.86,120.86 v -120.86 z"
   style="fill:#063d79;stroke:#063d79;stroke-width:20.83px;stroke-linecap:butt"
   id="path977" />

                    </g>

                    <g
   transform="translate(3212.67,-2877.02)"
   id="g983">
                        <path
   d="m 2109.24,6743.51 c 0,-66.75 -54.12,-120.86 -120.87,-120.86 v 120.86 z"
   style="fill:#063d79;stroke:#063d79;stroke-width:20.83px;stroke-linecap:butt"
   id="path981" />

                    </g>

                </g>

                <g
   transform="matrix(1.17832,0,0,1.17832,-2005.52,-690.837)"
   id="g1011">
                    <g
   transform="matrix(0.514507,0,0,0.514507,4163.67,395.292)"
   id="g989">
                        <circle
   cx="1978.09"
   cy="6721.1099"
   r="171.59599"
   style="fill:none;stroke:#063d79;stroke-width:54.98px"
   id="circle987" />

                    </g>

                    <g
   transform="matrix(0.305479,0,0,0.305479,4577.15,1800.2)"
   id="g993">
                        <circle
   cx="1978.09"
   cy="6721.1099"
   r="171.59599"
   style="fill:none;stroke:#063d79;stroke-width:40.51px"
   id="circle991" />

                    </g>

                    <g
   transform="matrix(0.46724,0,0,0.46724,4297.83,704.867)"
   id="g997">
                        <path
   d="m 1702.1,6738.47 h 472.02"
   style="fill:none;stroke:#063d79;stroke-width:37.84px;stroke-linecap:butt"
   id="path995" />

                    </g>

                    <g
   transform="matrix(0,-0.46724,0.46724,0,2032.92,4780.91)"
   id="g1001">
                        <path
   d="m 1702.1,6738.47 h 472.02"
   style="fill:none;stroke:#063d79;stroke-width:37.84px;stroke-linecap:butt"
   id="path999" />

                    </g>

                    <g
   transform="matrix(1.9307,0,0,1.9307,3417.79,-9086.73)"
   id="g1005">
                        <path
   d="m 887.491,6702.26 c 0,14.34 11.628,25.97 25.972,25.97 v -25.97 z"
   style="fill:#063d79;stroke:#063d79;stroke-width:9.16px;stroke-linecap:butt"
   id="path1003" />

                    </g>

                    <g
   transform="matrix(1.9307,0,0,1.9307,3417.79,-9086.73)"
   id="g1009">
                        <path
   d="m 939.435,6702.26 c 0,-14.35 -11.628,-25.98 -25.972,-25.98 v 25.98 z"
   style="fill:#063d79;stroke:#063d79;stroke-width:9.16px;stroke-linecap:butt"
   id="path1007" />

                    </g>

                </g>

                <g
   transform="matrix(-0.997689,0,0,-1.01941,9968.62,9283.96)"
   id="g1037">
                    <g
   transform="matrix(1.21266,0,0,1.21266,2799.09,-4288.96)"
   id="g1015">
                        <circle
   cx="1978.09"
   cy="6721.1099"
   r="171.59599"
   style="fill:none;stroke:#063d79;stroke-width:44.29px"
   id="circle1013" />

                    </g>

                    <g
   transform="matrix(0.719992,0,0,0.719992,3773.63,-977.699)"
   id="g1019">
                        <circle
   cx="1978.09"
   cy="6721.1099"
   r="171.59599"
   style="fill:none;stroke:#063d79;stroke-width:45.9px"
   id="circle1017" />

                    </g>

                    <g
   transform="matrix(-1.1475,0,0,-1.12305,7001.61,13096)"
   id="g1023">
                        <path
   d="m 1464.25,8222.77 c 0,59.46 48.2,107.67 107.67,107.67 v -107.67 z"
   style="fill:#063d79;stroke:#063d79;stroke-width:18.2px;stroke-linecap:butt"
   id="path1021" />

                    </g>

                    <g
   transform="matrix(-1.1475,0,0,-1.12305,7001.61,13096)"
   id="g1027">
                        <path
   d="m 1679.59,8222.77 c 0,-59.46 -48.21,-107.67 -107.67,-107.67 v 107.67 z"
   style="fill:#063d79;stroke:#063d79;stroke-width:29.12px;stroke-linecap:butt"
   id="path1025" />

                    </g>

                    <g
   transform="translate(3212.67,-2877.02)"
   id="g1031">
                        <path
   d="m 1702.1,6738.47 h 472.02"
   style="fill:none;stroke:#063d79;stroke-width:33.05px;stroke-linecap:butt"
   id="path1029" />

                    </g>

                    <g
   transform="matrix(0,-1.08052,1,0,-1540.64,6021.68)"
   id="g1035">
                        <path
   d="m 1702.1,6738.47 h 472.02"
   style="fill:none;stroke:#063d79;stroke-width:31.72px;stroke-linecap:butt"
   id="path1033" />

                    </g>

                </g>

            </g>

        </g>

    </g>
    </g>
  </g>
</svg>
